<svg width="256" height="242" viewBox="0 0 256 242" fill="none" xmlns="http://www.w3.org/2000/svg">
<g clip-path="url(#clip0_5354_24150)">
<path d="M125.594 223.569L126.764 231.409C126.764 231.409 131.444 234.769 131.524 234.769C131.604 234.769 136.954 232.779 136.954 232.779L135.974 220.969L125.594 223.559V223.569Z" fill="#F6B58E"/>
<path d="M165.922 223.209L169.092 234.259L178.452 233.129L176.912 212.199L165.922 223.209Z" fill="#F6B58E"/>
<path fill-rule="evenodd" clip-rule="evenodd" d="M224.102 106.789L230.922 112.239L224.262 110.539L224.102 106.789Z" fill="#64CBE9"/>
<path fill-rule="evenodd" clip-rule="evenodd" d="M224.107 106.789L216.477 104.039L224.217 110.509L224.267 110.539L224.107 106.789Z" fill="#5ECAEA"/>
<path fill-rule="evenodd" clip-rule="evenodd" d="M216.476 104.039L224.216 110.509L224.206 110.529L224.156 110.499L210.906 105.039L216.476 104.039Z" fill="#00A5CF"/>
<path fill-rule="evenodd" clip-rule="evenodd" d="M230.926 112.239L224.266 110.539L234.316 118.309L230.926 112.239Z" fill="#7AD0E8"/>
<path fill-rule="evenodd" clip-rule="evenodd" d="M224.211 110.512L224.261 110.542L224.241 110.562L233.011 122.722L227.491 123.692L224.241 110.562L224.211 110.512Z" fill="#AEE0ED"/>
<path fill-rule="evenodd" clip-rule="evenodd" d="M224.214 110.512L224.204 110.532L219.844 120.922L227.494 123.692L224.244 110.562L224.214 110.512Z" fill="#BDE5F0"/>
<path fill-rule="evenodd" clip-rule="evenodd" d="M224.262 110.539L224.242 110.559L233.012 122.719L234.312 118.309L224.262 110.539Z" fill="#92D7E9"/>
<path fill-rule="evenodd" clip-rule="evenodd" d="M224.201 110.53L224.151 110.5L224.091 110.63L213.031 115.45L219.841 120.92L224.201 110.53Z" fill="#7AD0E8"/>
<path fill-rule="evenodd" clip-rule="evenodd" d="M224.153 110.499L210.903 105.039L209.633 109.399L224.153 110.499Z" fill="#7CD1E9"/>
<path fill-rule="evenodd" clip-rule="evenodd" d="M234.316 118.312L233.016 122.723L233.076 122.863L233.946 136.872L236.056 129.643L234.316 118.312Z" fill="#5ECAEA"/>
<path fill-rule="evenodd" clip-rule="evenodd" d="M210.903 105.039L209.633 109.399L196.133 115.329L198.153 108.379L198.263 108.209L210.903 105.039Z" fill="#00A5CF"/>
<path fill-rule="evenodd" clip-rule="evenodd" d="M224.153 110.502L209.633 109.402L213.033 115.452L224.093 110.632L224.153 110.502Z" fill="#96D8E9"/>
<path fill-rule="evenodd" clip-rule="evenodd" d="M233.017 122.719L227.497 123.689L227.547 123.819L227.347 124.599L224.977 138.459L233.947 136.869L233.077 122.859L233.017 122.719Z" fill="url(#paint0_linear_5354_24150)"/>
<path fill-rule="evenodd" clip-rule="evenodd" d="M209.633 109.402L213.033 115.452L201.653 125.112L196.133 115.332L209.633 109.402Z" fill="#64CBE9"/>
<path fill-rule="evenodd" clip-rule="evenodd" d="M213.031 115.449L219.841 120.919L212.681 133.979L201.641 125.169L201.651 125.109L213.031 115.449Z" fill="#92D7E9"/>
<path fill-rule="evenodd" clip-rule="evenodd" d="M227.49 123.692L219.84 120.922L212.68 133.982L224.97 138.462L227.34 124.602L227.54 123.822L227.49 123.692Z" fill="#AEE0ED"/>
<path fill-rule="evenodd" clip-rule="evenodd" d="M198.152 108.379L196.122 115.329L188.812 126.039L190.893 119.059L198.143 108.379M188.853 126.169L194.342 135.899L205.342 144.719L200.743 149.009L193.913 143.529L190.542 137.529L188.853 126.169Z" fill="#018AAA"/>
<path fill-rule="evenodd" clip-rule="evenodd" d="M233.946 136.871L224.976 138.461L217.656 149.191L226.626 147.601L233.946 136.871Z" fill="#AEE0ED"/>
<path fill-rule="evenodd" clip-rule="evenodd" d="M201.642 125.172L212.682 133.982L205.352 144.722L194.352 135.902L201.642 125.172Z" fill="#83D3ED"/>
<path fill-rule="evenodd" clip-rule="evenodd" d="M224.972 138.46L212.682 133.98L205.352 144.72L217.652 149.19L224.972 138.46Z" fill="#96D8E9"/>
<path fill-rule="evenodd" clip-rule="evenodd" d="M217.65 149.189L205.35 144.719L200.75 149.009L208.22 151.759L208.41 151.819L208.58 151.769L217.34 149.349L217.65 149.189Z" fill="#5ECAEA"/>
<path fill-rule="evenodd" clip-rule="evenodd" d="M201.65 125.112L196.13 115.332L188.82 126.032L188.86 126.172L194.35 135.902L201.64 125.172L201.65 125.112Z" fill="#018AAA"/>
<path d="M231.095 99.4489C231.005 99.3989 230.955 99.2989 230.945 99.1989L230.445 92.6189C230.445 92.4889 230.505 92.3689 230.615 92.3089C230.725 92.2489 230.865 92.2589 230.965 92.3289L243.305 101.489C243.425 101.579 243.475 101.749 243.405 101.889C243.345 102.029 243.185 102.109 243.035 102.079L231.195 99.4989C231.195 99.4989 231.125 99.4789 231.085 99.4589L231.095 99.4489ZM231.155 93.2789L231.585 98.8989L241.695 101.099L231.155 93.2789Z" fill="#00A5CF"/>
<path d="M231.093 99.4489L231.013 99.3989C231.013 99.3989 230.993 99.3889 230.983 99.3789L216.963 88.4689C216.833 88.3689 216.803 88.1989 216.873 88.0589C216.943 87.9189 217.113 87.8489 217.263 87.8989L230.863 92.2789C230.993 92.3189 231.083 92.4289 231.093 92.5689L231.593 99.1489C231.593 99.2689 231.543 99.3889 231.433 99.4589C231.323 99.5189 231.193 99.5189 231.093 99.4589V99.4489ZM218.833 89.0889L230.883 98.4689L230.453 92.8289L218.833 89.0789V89.0889Z" fill="#00A5CF"/>
<path d="M207.245 90.6003C207.145 90.5403 207.085 90.4203 207.095 90.3003C207.105 90.1503 207.215 90.0303 207.355 90.0003L217.095 87.8903C217.195 87.8703 217.295 87.8903 217.365 87.9503L231.385 98.8603C231.515 98.9603 231.555 99.1503 231.465 99.2903L231.435 99.3303C231.335 99.4803 231.135 99.5303 230.985 99.4303L230.935 99.4003L207.315 90.6203C207.315 90.6203 207.275 90.6003 207.255 90.5903L207.245 90.6003ZM217.085 88.5703L208.595 90.4103L229.375 98.1403L217.085 88.5703Z" fill="#00A5CF"/>
<path d="M249.275 112.52C249.275 112.52 249.265 112.52 249.255 112.51L231.075 99.44C230.945 99.35 230.905 99.18 230.965 99.04C231.025 98.9 231.185 98.82 231.335 98.85L243.175 101.43C243.265 101.45 243.335 101.5 243.385 101.58L249.725 112.07C249.805 112.2 249.785 112.38 249.665 112.48C249.555 112.58 249.395 112.6 249.265 112.52H249.275ZM232.745 99.83L248.335 111.03L242.895 102.04L232.745 99.83Z" fill="#00A5CF"/>
<path d="M237.59 122.402C237.52 122.362 237.47 122.292 237.45 122.212L230.93 99.3415L230.9 99.2816C230.82 99.1516 230.84 98.9815 230.95 98.8815C231.06 98.7715 231.23 98.7615 231.36 98.8415L231.44 98.8916C231.53 98.9416 231.58 99.0315 231.59 99.1315L247.67 119.872C247.74 119.962 247.76 120.082 247.72 120.182C247.68 120.282 247.59 120.362 247.48 120.392L237.83 122.442C237.74 122.462 237.66 122.442 237.59 122.402ZM232.02 100.762L238 121.742L246.84 119.862L232.02 100.762Z" fill="#00A5CF"/>
<path d="M223.956 117.989C223.906 117.959 223.866 117.909 223.836 117.849C223.796 117.769 223.796 117.679 223.826 117.589L230.856 99.0391C230.856 99.0391 230.876 98.9991 230.886 98.9791L230.916 98.9391C230.976 98.8391 231.086 98.7891 231.196 98.7891C231.306 98.7891 231.416 98.8491 231.476 98.9491L231.536 99.0391C231.536 99.0391 231.566 99.0891 231.576 99.1191L238.106 122.029C238.136 122.149 238.106 122.269 238.016 122.359C237.926 122.439 237.806 122.469 237.686 122.439L224.036 118.029C224.036 118.029 223.986 118.009 223.966 117.999L223.956 117.989ZM231.156 100.099L224.556 117.509L237.286 121.619L231.156 100.099Z" fill="#00A5CF"/>
<path d="M247.241 120.35C247.241 120.35 247.181 120.3 247.161 120.27L230.981 99.4095C230.901 99.2995 230.891 99.1495 230.961 99.0295L230.991 98.9895C231.041 98.9095 231.121 98.8595 231.211 98.8395C231.301 98.8195 231.391 98.8395 231.461 98.8995L249.641 111.97C249.751 112.05 249.801 112.19 249.771 112.32L247.741 120.15C247.711 120.27 247.611 120.36 247.491 120.39C247.411 120.41 247.321 120.39 247.251 120.35H247.241ZM232.781 100.67L247.261 119.34L249.061 112.37L232.771 100.66L232.781 100.67Z" fill="#00A5CF"/>
<path d="M223.953 117.99C223.953 117.99 223.943 117.99 223.933 117.98L211.623 108.78C211.533 108.71 211.483 108.6 211.493 108.48C211.503 108.37 211.573 108.27 211.683 108.22L230.743 99.1098L230.783 98.9998C230.813 98.9098 230.893 98.8398 230.983 98.8098C231.073 98.7798 231.183 98.7898 231.263 98.8398L231.343 98.8898C231.473 98.9698 231.533 99.1398 231.473 99.2798L224.443 117.83C224.403 117.93 224.323 118 224.223 118.03C224.133 118.06 224.033 118.04 223.953 117.99ZM212.443 108.57L223.973 117.18L230.513 99.9198L212.443 108.56V108.57Z" fill="#00A5CF"/>
<path d="M205.271 98.3496C205.271 98.3496 205.211 98.2996 205.181 98.2696C205.121 98.1896 205.101 98.0896 205.131 97.9896L207.111 90.2396C207.131 90.1496 207.191 90.0696 207.281 90.0296C207.361 89.9896 207.461 89.9796 207.551 90.0096L231.201 98.7996C231.351 98.8596 231.441 99.0096 231.411 99.1696C231.381 99.3296 231.241 99.4396 231.071 99.4296L205.441 98.3896C205.381 98.3896 205.331 98.3696 205.281 98.3396L205.271 98.3496ZM207.651 90.7596L205.861 97.7596L229.021 98.6996L207.651 90.7496V90.7596Z" fill="#00A5CF"/>
<path d="M249.761 145.198C249.681 145.148 249.621 145.058 249.611 144.948L247.221 120.408L247.121 120.208C247.081 120.138 247.081 120.058 247.091 119.978L249.121 112.148C249.161 111.998 249.301 111.898 249.451 111.898C249.601 111.898 249.731 112.018 249.761 112.168L253.522 131.998C253.522 131.998 253.522 132.098 253.522 132.138L250.251 144.988C250.211 145.138 250.072 145.248 249.912 145.238C249.862 145.238 249.801 145.218 249.761 145.188V145.198ZM247.761 120.028L247.831 120.168C247.831 120.168 247.861 120.248 247.861 120.288L250.072 143.018L252.861 132.058L249.382 113.738L247.751 120.028H247.761Z" fill="#00A5CF"/>
<path d="M181.876 109.621C181.876 109.621 181.856 109.601 181.846 109.601C181.746 109.521 181.706 109.391 181.736 109.261L184.876 96.9014C184.876 96.9014 184.896 96.8314 184.916 96.8114L185.096 96.5214C185.136 96.4514 185.206 96.4014 185.286 96.3814L207.346 90.0114C207.456 89.9814 207.586 90.0114 207.666 90.0914C207.746 90.1714 207.786 90.2914 207.756 90.4114L205.776 98.1614C205.756 98.2514 205.686 98.3314 205.596 98.3714L182.196 109.641C182.096 109.691 181.976 109.681 181.876 109.621ZM185.496 97.1114L182.546 108.741L205.176 97.8414L206.976 90.7914L185.596 96.9714L185.506 97.1114H185.496Z" fill="#00A5CF"/>
<path d="M211.634 108.791C211.634 108.791 211.554 108.731 211.524 108.681L205.154 98.2314C205.094 98.1314 205.094 98.0014 205.154 97.8914C205.214 97.7914 205.334 97.7214 205.454 97.7314L231.084 98.7714C231.194 98.7714 231.284 98.8314 231.344 98.9214C231.404 99.0114 231.414 99.1214 231.374 99.2214L231.284 99.4514C231.254 99.5314 231.194 99.5914 231.114 99.6314L211.934 108.801C211.834 108.851 211.714 108.841 211.614 108.781L211.634 108.791ZM206.044 98.4214L211.934 108.091L230.104 99.4014L206.044 98.4214Z" fill="#00A5CF"/>
<path d="M234.077 148.559C234.077 148.559 234.047 148.539 234.027 148.519C233.947 148.449 233.907 148.339 233.927 148.239L237.247 123.699V123.679L237.517 122.389L237.467 122.249C237.437 122.159 237.437 122.059 237.487 121.979C237.537 121.899 237.617 121.839 237.707 121.819L247.357 119.769C247.507 119.739 247.647 119.809 247.717 119.939L247.847 120.199C247.847 120.199 247.877 120.279 247.877 120.319L250.267 144.919C250.287 145.089 250.177 145.239 250.007 145.269L234.317 148.629C234.237 148.649 234.147 148.629 234.077 148.589V148.559ZM237.897 123.789L234.647 147.859L249.597 144.659L247.247 120.439L238.207 122.359C238.207 122.359 238.207 122.389 238.207 122.409L237.917 123.779L237.897 123.789Z" fill="#00A5CF"/>
<path d="M192.196 126.501C192.196 126.501 192.116 126.441 192.086 126.391L181.766 109.511C181.716 109.431 181.706 109.331 181.736 109.251C181.766 109.161 181.826 109.091 181.906 109.051L205.306 97.7814C205.456 97.7114 205.646 97.7614 205.726 97.9014L212.096 108.351C212.176 108.481 212.156 108.661 212.036 108.761L192.596 126.471C192.526 126.541 192.426 126.571 192.326 126.551C192.276 126.551 192.236 126.531 192.196 126.501ZM182.516 109.481L192.446 125.711L211.396 108.451L205.326 98.4914L182.526 109.471L182.516 109.481Z" fill="#00A5CF"/>
<path d="M212.153 141.439C212.153 141.439 212.143 141.439 212.133 141.429L192.163 126.599C192.073 126.529 192.023 126.419 192.033 126.299V126.189C192.053 126.109 192.093 126.029 192.153 125.979L211.593 108.269C211.713 108.159 211.883 108.149 212.013 108.249L224.323 117.449C224.453 117.549 224.493 117.719 224.423 117.859L212.623 141.309C212.583 141.399 212.503 141.459 212.403 141.479C212.313 141.499 212.223 141.479 212.153 141.439ZM192.813 126.259L212.213 140.659L223.713 117.809L211.833 108.939L192.813 126.259Z" fill="#00A5CF"/>
<path d="M212.156 141.441C212.096 141.401 212.056 141.351 212.026 141.291C211.986 141.201 211.996 141.101 212.026 141.021L223.826 117.571C223.896 117.431 224.066 117.361 224.216 117.411L237.866 121.821C237.956 121.851 238.036 121.921 238.076 122.021L238.166 122.251C238.186 122.311 238.196 122.371 238.176 122.431L237.886 123.801L234.566 148.331C234.556 148.431 234.496 148.511 234.416 148.561C234.336 148.611 234.236 148.621 234.136 148.591L212.216 141.471C212.216 141.471 212.166 141.451 212.146 141.441H212.156ZM224.296 118.111L212.796 140.961L233.976 147.841L237.246 123.691V123.671L237.516 122.391L224.296 118.121V118.111Z" fill="#00A5CF"/>
<path d="M192.094 168.621C192.094 168.621 192.084 168.621 192.074 168.611L179.714 159.381C179.714 159.381 179.654 159.321 179.634 159.291L173.324 148.941C173.324 148.941 173.284 148.871 173.284 148.831L169.614 128.941C169.614 128.941 169.614 128.901 169.614 128.871C169.544 128.791 169.504 128.681 169.534 128.561L172.764 116.141C172.764 116.141 172.784 116.081 172.804 116.051L184.914 96.8112C185.004 96.6712 185.174 96.6212 185.324 96.6812C185.474 96.7412 185.554 96.9112 185.514 97.0612L182.374 109.421C182.374 109.421 182.354 109.491 182.334 109.511L170.214 128.681C170.214 128.681 170.214 128.681 170.214 128.691L180.444 145.421L200.294 160.231C200.374 160.291 200.414 160.371 200.424 160.471C200.424 160.571 200.394 160.661 200.324 160.731L192.494 168.571C192.384 168.681 192.214 168.701 192.084 168.621H192.094ZM180.164 158.891L192.244 167.911L199.604 160.541L180.004 145.921C180.004 145.921 179.944 145.861 179.924 145.831L170.584 130.551L173.924 148.641L180.164 158.891ZM173.384 116.361L170.694 126.691L181.744 109.211L184.354 98.9212L173.374 116.361H173.384ZM206.054 173.001C205.984 172.961 205.934 172.891 205.914 172.811C205.874 172.641 205.964 172.471 206.134 172.411L221.354 167.631L221.864 167.351C221.864 167.351 221.924 167.321 221.954 167.321L237.644 163.961C237.814 163.921 237.984 164.031 238.034 164.201C238.074 164.371 237.974 164.551 237.804 164.601L215.904 171.011H215.884L206.304 173.051C206.214 173.071 206.134 173.051 206.064 173.011L206.054 173.001ZM222.144 167.941L221.654 168.221C221.654 168.221 221.614 168.241 221.594 168.251L212.954 170.961L215.734 170.371L229.094 166.461L222.144 167.951V167.941Z" fill="#00A5CF"/>
<path d="M221.845 167.898C221.845 167.898 221.775 167.848 221.755 167.808C221.675 167.698 221.675 167.558 221.755 167.448L233.985 148.108C234.035 148.038 234.105 147.978 234.195 147.958L249.885 144.598C250.015 144.568 250.145 144.618 250.225 144.728C250.305 144.838 250.305 144.978 250.225 145.088L237.995 164.428C237.945 164.498 237.875 164.558 237.785 164.578L222.095 167.938C222.005 167.958 221.925 167.938 221.855 167.898H221.845ZM234.455 148.568L222.715 167.138L237.505 163.978L249.245 145.408L234.455 148.568Z" fill="#00A5CF"/>
<path d="M199.926 160.78C199.926 160.78 199.916 160.78 199.906 160.77L180.006 145.92C179.866 145.82 179.836 145.63 179.926 145.48L192.086 126.15C192.136 126.07 192.216 126.02 192.306 126C192.396 125.98 192.486 126 192.566 126.06L212.536 140.89C212.676 140.99 212.706 141.18 212.616 141.33L200.386 160.67C200.336 160.75 200.256 160.8 200.166 160.82C200.086 160.84 199.996 160.82 199.936 160.78H199.926ZM180.636 145.57L200.006 160.02L211.886 141.23L192.446 126.79L180.636 145.56V145.57Z" fill="#00A5CF"/>
<path d="M199.92 160.782C199.86 160.742 199.81 160.682 199.79 160.612C199.76 160.512 199.77 160.412 199.82 160.322L212.05 140.982C212.13 140.852 212.29 140.802 212.43 140.842L234.35 147.962C234.45 147.992 234.52 148.072 234.56 148.162C234.59 148.262 234.58 148.362 234.53 148.452L222.3 167.792C222.22 167.922 222.06 167.972 221.92 167.932L200 160.812C200 160.812 199.95 160.792 199.93 160.782H199.92ZM212.47 141.552L200.6 160.322L221.88 167.232L233.75 148.462L212.47 141.552Z" fill="#00A5CF"/>
<path d="M192.097 168.619C192.027 168.569 191.977 168.499 191.957 168.419C191.927 168.309 191.957 168.189 192.047 168.109L199.877 160.269C199.967 160.179 200.097 160.149 200.207 160.189L222.127 167.309C222.247 167.349 222.337 167.459 222.357 167.589C222.367 167.719 222.307 167.849 222.187 167.909L221.647 168.209C221.647 168.209 221.607 168.229 221.587 168.239L206.327 173.029L206.037 173.129C205.977 173.149 205.907 173.149 205.837 173.129L205.497 173.029L192.167 168.649C192.167 168.649 192.117 168.629 192.097 168.619ZM200.197 160.879L192.887 168.199L205.697 172.409L205.927 172.479L206.127 172.409L221.157 167.689L200.197 160.879Z" fill="#00A5CF"/>
<path d="M180.024 145.94C180.024 145.94 179.944 145.88 179.914 145.83L169.644 129.04C169.644 129.04 169.624 129 169.614 128.99L169.524 128.76C169.484 128.66 169.494 128.55 169.554 128.47L181.754 109.17C181.814 109.07 181.924 109.02 182.034 109.02C182.144 109.02 182.254 109.08 182.314 109.18L192.634 126.06C192.674 126.12 192.684 126.19 192.684 126.26V126.37C192.664 126.42 192.654 126.47 192.624 126.51L180.464 145.84C180.404 145.94 180.294 145.99 180.184 145.99C180.124 145.99 180.064 145.97 180.014 145.94H180.024ZM170.234 128.73L180.204 145.04L192.014 126.27L182.044 109.97L170.214 128.69L170.234 128.74V128.73Z" fill="#00A5CF"/>
<path d="M179.737 159.391C179.647 159.331 179.577 159.221 179.587 159.101L179.877 145.641C179.877 145.461 180.027 145.311 180.217 145.321C180.397 145.321 180.547 145.471 180.537 145.661L180.247 159.121C180.247 159.301 180.097 159.451 179.907 159.441C179.847 159.441 179.787 159.421 179.737 159.391Z" fill="#00A5CF"/>
<path d="M231.291 101.363C232.34 101.363 233.191 100.512 233.191 99.4625C233.191 98.4132 232.34 97.5625 231.291 97.5625C230.241 97.5625 229.391 98.4132 229.391 99.4625C229.391 100.512 230.241 101.363 231.291 101.363Z" fill="#00A5CF"/>
<path d="M209.49 90.7879C209.703 89.7605 209.044 88.7546 208.016 88.5411C206.989 88.3276 205.983 88.9873 205.769 90.0147C205.556 91.0421 206.216 92.0481 207.243 92.2616C208.27 92.4751 209.276 91.8153 209.49 90.7879Z" fill="#00A5CF"/>
<path d="M217.913 90.7637C218.962 90.7296 219.784 89.8518 219.75 88.803C219.716 87.7542 218.838 86.9316 217.79 86.9657C216.741 86.9997 215.918 87.8776 215.952 88.9263C215.986 89.9751 216.864 90.7977 217.913 90.7637Z" fill="#00A5CF"/>
<path d="M232.553 93.2814C233.113 92.3914 232.843 91.2114 231.953 90.6514C231.063 90.0914 229.883 90.3614 229.323 91.2514C228.763 92.1414 229.033 93.3214 229.923 93.8814C230.813 94.4414 231.993 94.1714 232.553 93.2814Z" fill="#00A5CF"/>
<path d="M242.97 103.241C244.02 103.241 244.87 102.391 244.87 101.341C244.87 100.292 244.02 99.4414 242.97 99.4414C241.921 99.4414 241.07 100.292 241.07 101.341C241.07 102.391 241.921 103.241 242.97 103.241Z" fill="#00A5CF"/>
<path d="M207.021 98.6668C207.235 97.6394 206.575 96.6335 205.548 96.42C204.52 96.2065 203.514 96.8663 203.301 97.8936C203.087 98.921 203.747 99.927 204.774 100.141C205.802 100.354 206.808 99.6942 207.021 98.6668Z" fill="#00A5CF"/>
<path d="M213.662 109.284C213.875 108.257 213.216 107.251 212.188 107.037C211.161 106.824 210.155 107.483 209.941 108.511C209.728 109.538 210.388 110.544 211.415 110.758C212.442 110.971 213.448 110.311 213.662 109.284Z" fill="#00A5CF"/>
<path d="M226.03 118.879C226.59 117.989 226.32 116.809 225.43 116.249C224.54 115.689 223.36 115.959 222.8 116.849C222.24 117.739 222.51 118.919 223.4 119.479C224.29 120.039 225.47 119.769 226.03 118.879Z" fill="#00A5CF"/>
<path d="M239.624 123.27C240.184 122.38 239.914 121.2 239.024 120.64C238.134 120.08 236.954 120.35 236.394 121.24C235.834 122.13 236.104 123.31 236.994 123.87C237.884 124.43 239.064 124.16 239.624 123.27Z" fill="#00A5CF"/>
<path d="M248.397 120.969C248.957 120.079 248.687 118.899 247.797 118.339C246.907 117.779 245.727 118.049 245.167 118.939C244.607 119.829 244.877 121.009 245.767 121.569C246.657 122.129 247.837 121.859 248.397 120.969Z" fill="#00A5CF"/>
<path d="M251.186 112.949C251.746 112.059 251.476 110.879 250.586 110.319C249.696 109.759 248.516 110.029 247.956 110.919C247.396 111.809 247.666 112.989 248.556 113.549C249.446 114.109 250.626 113.839 251.186 112.949Z" fill="#00A5CF"/>
<path d="M254.764 132.789C255.324 131.899 255.054 130.719 254.164 130.159C253.274 129.599 252.094 129.869 251.534 130.759C250.974 131.649 251.244 132.829 252.134 133.389C253.024 133.949 254.204 133.679 254.764 132.789Z" fill="#00A5CF"/>
<path d="M249.455 146.78C250.504 146.78 251.355 145.93 251.355 144.88C251.355 143.831 250.504 142.98 249.455 142.98C248.405 142.98 247.555 143.831 247.555 144.88C247.555 145.93 248.405 146.78 249.455 146.78Z" fill="#00A5CF"/>
<path d="M235.405 149.402C235.965 148.512 235.695 147.332 234.805 146.772C233.915 146.212 232.735 146.482 232.175 147.372C231.615 148.262 231.885 149.442 232.775 150.002C233.665 150.562 234.845 150.292 235.405 149.402Z" fill="#00A5CF"/>
<path d="M213.6 142.199C214.16 141.309 213.89 140.129 213 139.569C212.11 139.009 210.93 139.279 210.37 140.169C209.81 141.059 210.08 142.239 210.97 142.799C211.86 143.359 213.04 143.089 213.6 142.199Z" fill="#00A5CF"/>
<path d="M194.264 127.492C194.824 126.602 194.554 125.422 193.664 124.862C192.774 124.302 191.594 124.572 191.034 125.462C190.474 126.352 190.744 127.532 191.634 128.092C192.524 128.652 193.704 128.382 194.264 127.492Z" fill="#00A5CF"/>
<path d="M182.455 111.113C183.504 111.113 184.355 110.262 184.355 109.213C184.355 108.163 183.504 107.312 182.455 107.312C181.405 107.312 180.555 108.163 180.555 109.213C180.555 110.262 181.405 111.113 182.455 111.113Z" fill="#00A5CF"/>
<path d="M186.584 97.7111C187.144 96.8211 186.874 95.6411 185.984 95.0811C185.094 94.5211 183.915 94.7911 183.355 95.6811C182.795 96.5711 183.064 97.7511 183.954 98.3111C184.844 98.8711 186.024 98.6011 186.584 97.7111Z" fill="#00A5CF"/>
<path d="M174.827 117.129C175.387 116.239 175.117 115.059 174.227 114.499C173.337 113.939 172.157 114.209 171.597 115.099C171.037 115.989 171.307 117.169 172.197 117.729C173.087 118.289 174.267 118.019 174.827 117.129Z" fill="#00A5CF"/>
<path d="M171.553 129.481C172.113 128.591 171.843 127.411 170.953 126.851C170.063 126.291 168.883 126.561 168.323 127.451C167.763 128.341 168.033 129.521 168.923 130.081C169.813 130.641 170.993 130.371 171.553 129.481Z" fill="#00A5CF"/>
<path d="M180.252 147.71C181.301 147.71 182.152 146.859 182.152 145.81C182.152 144.761 181.301 143.91 180.252 143.91C179.202 143.91 178.352 144.761 178.352 145.81C178.352 146.859 179.202 147.71 180.252 147.71Z" fill="#00A5CF"/>
<path d="M201.506 161.43C202.066 160.54 201.796 159.36 200.906 158.8C200.016 158.24 198.836 158.51 198.276 159.4C197.716 160.29 197.986 161.47 198.876 162.03C199.766 162.59 200.946 162.32 201.506 161.43Z" fill="#00A5CF"/>
<path d="M223.444 167.602C224.004 166.712 223.734 165.532 222.844 164.972C221.954 164.412 220.774 164.682 220.214 165.572C219.654 166.462 219.924 167.642 220.814 168.202C221.704 168.762 222.884 168.492 223.444 167.602Z" fill="#00A5CF"/>
<path d="M239.014 165.242C239.574 164.352 239.304 163.172 238.414 162.612C237.524 162.052 236.344 162.322 235.784 163.212C235.224 164.102 235.494 165.282 236.384 165.842C237.274 166.402 238.454 166.132 239.014 165.242Z" fill="#00A5CF"/>
<path d="M193.256 168.961C193.816 168.071 193.546 166.891 192.656 166.331C191.766 165.771 190.586 166.041 190.026 166.931C189.466 167.821 189.736 169.001 190.626 169.561C191.516 170.121 192.696 169.851 193.256 168.961Z" fill="#00A5CF"/>
<path d="M207.17 173.699C207.73 172.809 207.46 171.629 206.57 171.069C205.68 170.509 204.5 170.779 203.94 171.669C203.38 172.559 203.65 173.739 204.54 174.299C205.43 174.859 206.61 174.589 207.17 173.699Z" fill="#00A5CF"/>
<path d="M179.814 160.632C180.863 160.632 181.714 159.781 181.714 158.732C181.714 157.683 180.863 156.832 179.814 156.832C178.765 156.832 177.914 157.683 177.914 158.732C177.914 159.781 178.765 160.632 179.814 160.632Z" fill="#00A5CF"/>
<path d="M174.545 150.07C175.105 149.18 174.835 148 173.945 147.44C173.055 146.88 171.875 147.15 171.315 148.04C170.755 148.93 171.025 150.11 171.915 150.67C172.805 151.23 173.985 150.96 174.545 150.07Z" fill="#00A5CF"/>
<path fill-rule="evenodd" clip-rule="evenodd" d="M217.656 149.192L226.626 147.602L214.066 150.802L208.586 151.772L217.346 149.352L217.656 149.192Z" fill="#92D7E9"/>
<path d="M124.383 223.951H138.473L141.403 161.751C141.403 161.751 170.383 116.301 166.243 105.071C162.103 93.8413 136.963 104.781 136.963 104.781C136.963 104.781 124.193 138.601 122.763 144.521C121.333 150.441 121.093 152.851 121.203 158.981C121.303 164.801 124.103 219.361 124.383 223.951Z" fill="#565656"/>
<path d="M178.7 223.952C178.33 219.662 173.31 152.102 172.3 140.122C171.25 127.692 170.87 110.232 166.24 105.072C161.61 99.9218 142.75 102.662 142.75 102.662L165.92 223.942H178.7V223.952Z" fill="#444545"/>
<path d="M71.7435 173.954C72.8872 173.846 73.7266 172.831 73.6185 171.687C73.5104 170.543 72.4957 169.704 71.352 169.812C70.2084 169.92 69.3689 170.935 69.477 172.079C69.5851 173.222 70.5998 174.062 71.7435 173.954Z" fill="#63C0C4"/>
<path d="M88.5033 200.109C88.4133 200.059 88.3233 199.989 88.2733 199.899L71.0833 172.189C70.9833 172.029 70.9733 171.829 71.0533 171.659L91.5333 128.789C91.6233 128.609 91.8033 128.489 92.0033 128.469C92.2033 128.459 92.4033 128.559 92.5033 128.729L109.693 156.439C109.793 156.599 109.803 156.799 109.723 156.969L89.2433 199.839C89.1533 200.019 88.9733 200.139 88.7733 200.159C88.6833 200.159 88.5833 200.149 88.5033 200.109ZM72.1833 171.859L88.6733 198.449L108.583 156.769L92.0933 130.179L72.1833 171.859Z" fill="#00A5CF"/>
<path d="M30.7205 168.86C30.6205 168.81 30.5305 168.73 30.4805 168.63C30.3905 168.47 30.3805 168.28 30.4605 168.11L50.9405 125.24C51.0405 125.03 51.2605 124.9 51.4905 124.93L92.0805 128.47C92.2605 128.49 92.4205 128.59 92.5205 128.75C92.6105 128.91 92.6205 129.1 92.5405 129.27L72.0605 172.14C71.9605 172.35 71.7405 172.48 71.5105 172.45L30.9205 168.91C30.8505 168.91 30.7905 168.89 30.7305 168.86H30.7205ZM51.7705 126.08L31.8105 167.88L71.2105 171.31L91.1705 129.51L51.7705 126.08Z" fill="#00A5CF"/>
<path d="M82.9634 145.109L58.4634 142.969L47.2734 166.399L71.7734 168.539L82.1534 185.269L93.3434 161.839L82.9634 145.109Z" fill="#00A5CF"/>
<path d="M57.5597 183.31L47.1797 166.58L58.3697 143.16L68.7497 159.88L57.5597 183.31Z" fill="#018AAA"/>
<path d="M82.0625 185.449L57.5625 183.309L68.7525 159.879L93.2525 162.019L82.0625 185.449Z" fill="#0ABCE5"/>
<path d="M53.0294 127.567C53.9077 126.826 54.0195 125.514 53.2791 124.636C52.5387 123.757 51.2265 123.646 50.3481 124.386C49.4698 125.126 49.358 126.439 50.0984 127.317C50.8388 128.195 52.151 128.307 53.0294 127.567Z" fill="#00A5CF"/>
<path d="M91.7988 131.59C92.9475 131.59 93.8787 130.658 93.8787 129.51C93.8787 128.361 92.9475 127.43 91.7988 127.43C90.65 127.43 89.7188 128.361 89.7188 129.51C89.7188 130.658 90.65 131.59 91.7988 131.59Z" fill="#00A5CF"/>
<path d="M69.9014 155.148C70.8708 154.532 71.157 153.246 70.5406 152.277C69.9242 151.308 68.6387 151.021 67.6693 151.638C66.6999 152.254 66.4137 153.54 67.0301 154.509C67.6465 155.479 68.932 155.765 69.9014 155.148Z" fill="#00A5CF"/>
<path d="M108.9 159C110.049 159 110.98 158.069 110.98 156.92C110.98 155.771 110.049 154.84 108.9 154.84C107.752 154.84 106.82 155.771 106.82 156.92C106.82 158.069 107.752 159 108.9 159Z" fill="#00A5CF"/>
<path d="M48.58 198.441C49.7288 198.441 50.66 197.51 50.66 196.361C50.66 195.212 49.7288 194.281 48.58 194.281C47.4312 194.281 46.5 195.212 46.5 196.361C46.5 197.51 47.4312 198.441 48.58 198.441Z" fill="#00A5CF"/>
<path d="M90.0413 201.475C90.918 200.733 91.0268 199.42 90.2844 198.543C89.542 197.667 88.2295 197.558 87.3529 198.3C86.4763 199.043 86.3675 200.355 87.1098 201.232C87.8522 202.108 89.1647 202.217 90.0413 201.475Z" fill="#00A5CF"/>
<path d="M31.6555 170.42C32.7992 170.312 33.6392 169.298 33.5317 168.154C33.4242 167.01 32.4099 166.17 31.2662 166.278C30.1225 166.386 29.2825 167.4 29.39 168.544C29.4975 169.687 30.5118 170.527 31.6555 170.42Z" fill="#00A5CF"/>
<path d="M47.769 196.871C47.679 196.821 47.589 196.751 47.539 196.661L30.349 168.951C30.249 168.791 30.239 168.591 30.319 168.421L50.799 125.551C50.889 125.371 51.069 125.251 51.269 125.231C51.469 125.221 51.669 125.321 51.769 125.491L68.959 153.201C69.059 153.361 69.069 153.561 68.989 153.731L48.509 196.601C48.419 196.781 48.239 196.901 48.039 196.921C47.949 196.921 47.849 196.911 47.769 196.871ZM31.449 168.621L47.939 195.211L67.849 153.531L51.359 126.941L31.449 168.621Z" fill="#00A5CF"/>
<path d="M47.7674 196.872C47.6674 196.822 47.5774 196.742 47.5274 196.642C47.4374 196.482 47.4274 196.292 47.5074 196.122L67.9874 153.252C68.0874 153.042 68.3074 152.912 68.5374 152.942L109.127 156.482C109.307 156.502 109.467 156.602 109.567 156.762C109.657 156.922 109.667 157.112 109.587 157.282L89.1074 200.152C89.0074 200.362 88.7874 200.492 88.5574 200.462L47.9674 196.922C47.8974 196.922 47.8374 196.902 47.7774 196.872H47.7674ZM68.8174 154.092L48.8574 195.892L88.2574 199.322L108.217 157.522L68.8174 154.092Z" fill="#00A5CF"/>
<path d="M41.8826 44.8892C42.0226 44.8092 42.2026 44.7892 42.3626 44.8592L74.9526 58.7992C75.1526 58.8792 75.2726 59.0792 75.2826 59.2892L75.9226 117.929C75.9226 118.179 75.7526 118.409 75.5026 118.459C75.2526 118.519 75.0026 118.389 74.8926 118.159L41.6726 45.5792C41.5826 45.3792 41.6226 45.1392 41.7726 44.9792C41.8026 44.9392 41.8426 44.9192 41.8826 44.8892ZM74.2126 59.6492L43.2226 46.3892L74.8226 115.399L74.2126 59.6492Z" fill="#00A5CF"/>
<path d="M41.8831 44.8883C41.9731 44.8383 42.0731 44.8083 42.1731 44.8183C42.3731 44.8183 42.5631 44.9483 42.6431 45.1283L75.8731 117.708C75.9731 117.918 75.9231 118.158 75.7531 118.318C75.5831 118.478 75.3431 118.508 75.1331 118.408L18.2231 89.0583C18.0931 88.9883 17.9931 88.8783 17.9531 88.7383C17.9131 88.5983 17.9231 88.4483 17.9931 88.3183L41.6631 45.0883C41.7131 44.9983 41.7831 44.9283 41.8631 44.8783L41.8831 44.8883ZM74.2531 116.738L42.1131 46.5483L19.2231 88.3483L74.2531 116.728V116.738Z" fill="#00A5CF"/>
<path d="M62.8878 71.6813L63.1778 97.5713L48.5078 65.5312L62.8878 71.6813Z" fill="#0ABCE5"/>
<path d="M37.9297 85.0113L48.5097 65.5312L63.2597 97.7613L37.9297 85.0113Z" fill="#0ABCE5"/>
<path d="M37.9297 85.0113L62.8897 71.6813L48.5097 65.5312L37.9297 85.0113Z" fill="#00A5CF"/>
<path d="M18.2071 88.119C18.2071 88.119 18.2271 88.119 18.2271 88.109L74.4971 58.819C74.7571 58.679 75.0871 58.789 75.2271 59.049C75.3671 59.309 75.2671 59.639 74.9971 59.779L18.7271 89.069C18.4671 89.209 18.1371 89.099 17.9971 88.839C17.8671 88.579 17.9571 88.269 18.1971 88.129L18.2071 88.119Z" fill="#00A5CF"/>
<path d="M75.3913 120.04C76.5566 120.04 77.5013 119.096 77.5013 117.93C77.5013 116.765 76.5566 115.82 75.3913 115.82C74.2259 115.82 73.2812 116.765 73.2812 117.93C73.2812 119.096 74.2259 120.04 75.3913 120.04Z" fill="#00A5CF"/>
<path d="M18.7506 90.5286C19.9159 90.5286 20.8606 89.5839 20.8606 88.4186C20.8606 87.2533 19.9159 86.3086 18.7506 86.3086C17.5853 86.3086 16.6406 87.2533 16.6406 88.4186C16.6406 89.5839 17.5853 90.5286 18.7506 90.5286Z" fill="#00A5CF"/>
<path d="M74.4694 61.5716C75.6347 61.5716 76.5794 60.6269 76.5794 59.4616C76.5794 58.2962 75.6347 57.3516 74.4694 57.3516C73.3041 57.3516 72.3594 58.2962 72.3594 59.4616C72.3594 60.6269 73.3041 61.5716 74.4694 61.5716Z" fill="#00A5CF"/>
<path d="M42.4538 47.97C43.6191 47.97 44.5638 47.0253 44.5638 45.86C44.5638 44.6947 43.6191 43.75 42.4538 43.75C41.2884 43.75 40.3438 44.6947 40.3438 45.86C40.3438 47.0253 41.2884 47.97 42.4538 47.97Z" fill="#00A5CF"/>
<path d="M106.7 68.0114C106.7 68.0114 105.68 64.5614 104.21 63.7114C102.74 62.8614 97.6199 61.2214 97.1799 58.5114C96.7399 55.8014 96.6499 43.8514 98.1599 44.0814C99.6699 44.3114 105.76 54.9514 106.28 54.8714C106.8 54.8014 106.74 50.2114 109.61 50.0414C108.97 54.7214 108.11 56.9714 108.99 59.4414C109.87 61.9114 112.26 65.9314 112.26 65.9314L106.72 68.0114H106.7Z" fill="#F6B58E"/>
<path d="M145.581 65.0413C143.991 65.0113 142.391 64.9913 140.801 65.0312C140.591 65.0312 140.391 65.0413 140.181 65.0513C140.141 65.0513 140.081 65.0513 140.021 65.0513C139.691 65.0513 139.341 65.0913 139.011 65.1213C138.231 65.1813 137.451 65.2613 136.671 65.3713C135.891 65.4813 135.121 65.6213 134.351 65.7913C133.981 65.8713 133.611 65.9612 133.241 66.0612C133.051 66.1112 132.851 66.1713 132.661 66.2213C132.631 66.2213 132.611 66.2413 132.571 66.2513C132.271 66.3513 131.991 66.4213 131.711 66.4613C127.121 74.6313 124.361 84.7213 124.361 84.7213L113.061 63.5312L104.141 67.9313C105.861 75.1713 113.561 92.5113 117.041 97.5513C120.521 102.601 127.461 105.061 130.451 100.751C133.441 96.4412 143.881 77.3713 143.881 77.3713C143.881 77.3713 145.751 70.8413 146.181 65.0513C145.981 65.0513 145.771 65.0312 145.571 65.0312L145.581 65.0413Z" fill="#00A5CF"/>
<path d="M114.944 29.4095C114.944 29.4095 114.894 29.4595 114.864 29.4695L105.384 33.3595C105.324 33.3795 105.264 33.3795 105.214 33.3395L92.9938 24.7695C92.9438 24.7295 92.9138 24.6695 92.9238 24.6095C92.9238 24.5495 92.9738 24.4895 93.0338 24.4695L102.514 20.5795C102.574 20.5595 102.634 20.5595 102.684 20.5995L114.904 29.1695C114.954 29.2095 114.984 29.2695 114.974 29.3295C114.974 29.3595 114.964 29.3895 114.944 29.4095ZM105.344 32.9995L114.434 29.2695L102.554 20.9395L93.4638 24.6695L105.344 32.9995Z" fill="#00A5CF"/>
<path d="M102.247 45.6896C102.247 45.6896 102.197 45.7396 102.167 45.7496C102.117 45.7696 102.057 45.7596 102.007 45.7296L89.7871 37.1596C89.7271 37.1196 89.6971 37.0396 89.7171 36.9696L92.9171 24.5796C92.9271 24.5196 92.9671 24.4796 93.0271 24.4596C93.0771 24.4396 93.1371 24.4496 93.1871 24.4796L105.407 33.0496C105.467 33.0896 105.497 33.1696 105.477 33.2396L102.277 45.6296C102.277 45.6296 102.267 45.6696 102.247 45.6896ZM90.0871 36.9496L101.997 45.2996L105.107 33.2696L93.1971 24.9196L90.0871 36.9496Z" fill="#00A5CF"/>
<path d="M97.6119 28.2719L95.6719 35.7519L102.352 40.4319L104.282 32.9519L110.012 30.6119L103.332 25.9219L97.6119 28.2719Z" fill="#00A5CF"/>
<path d="M108.119 38.1214L102.399 40.4714L95.7188 35.7914L101.449 33.4414L108.119 38.1214Z" fill="#018AAA"/>
<path d="M110.063 30.6409L108.123 38.1209L101.453 33.4409L103.383 25.9609L110.063 30.6409Z" fill="#0ABCE5"/>
<path d="M105.679 32.66C105.379 32.45 104.979 32.52 104.769 32.82C104.559 33.12 104.629 33.52 104.929 33.73C105.229 33.94 105.629 33.87 105.839 33.57C106.049 33.27 105.979 32.87 105.679 32.66Z" fill="#00A5CF"/>
<path d="M90.4293 36.4295C90.1293 36.2195 89.7293 36.2895 89.5193 36.5895C89.3093 36.8895 89.3793 37.2895 89.6793 37.4995C89.9793 37.7095 90.3793 37.6395 90.5893 37.3395C90.7993 37.0395 90.7293 36.6395 90.4293 36.4295Z" fill="#00A5CF"/>
<path d="M93.609 24.1912C93.309 23.9812 92.909 24.0512 92.699 24.3512C92.489 24.6512 92.559 25.0512 92.859 25.2612C93.159 25.4712 93.559 25.4012 93.769 25.1012C93.979 24.8012 93.909 24.4012 93.609 24.1912Z" fill="#00A5CF"/>
<path d="M99.8122 32.5584C99.5122 32.3484 99.1122 32.4184 98.9022 32.7184C98.6922 33.0184 98.7622 33.4184 99.0622 33.6284C99.3622 33.8384 99.7622 33.7684 99.9722 33.4684C100.182 33.1684 100.112 32.7684 99.8122 32.5584Z" fill="#00A5CF"/>
<path d="M102.992 20.3084C102.692 20.0984 102.292 20.1684 102.082 20.4684C101.872 20.7684 101.942 21.1684 102.242 21.3784C102.542 21.5884 102.942 21.5184 103.152 21.2184C103.362 20.9184 103.292 20.5184 102.992 20.3084Z" fill="#00A5CF"/>
<path d="M112.078 41.0506C111.778 40.8406 111.378 40.9106 111.168 41.2106C110.958 41.5106 111.028 41.9106 111.328 42.1206C111.628 42.3306 112.028 42.2606 112.238 41.9606C112.448 41.6606 112.378 41.2606 112.078 41.0506Z" fill="#00A5CF"/>
<path d="M115.25 28.8006C114.95 28.5906 114.55 28.6606 114.34 28.9606C114.13 29.2606 114.2 29.6606 114.5 29.8706C114.8 30.0806 115.2 30.0106 115.41 29.7106C115.62 29.4106 115.55 29.0106 115.25 28.8006Z" fill="#00A5CF"/>
<path d="M102.507 44.8982C102.207 44.6882 101.807 44.7582 101.597 45.0582C101.387 45.3582 101.457 45.7582 101.757 45.9682C102.057 46.1782 102.457 46.1082 102.667 45.8082C102.877 45.5082 102.807 45.1082 102.507 44.8982Z" fill="#63C0C4"/>
<path d="M111.819 41.8588C111.819 41.8588 111.769 41.9088 111.739 41.9188L102.259 45.8088C102.199 45.8288 102.139 45.8288 102.089 45.7888L89.8688 37.2188C89.8188 37.1788 89.7888 37.1188 89.7988 37.0588C89.7988 36.9988 89.8488 36.9388 89.9088 36.9188L99.3888 33.0288C99.4488 33.0088 99.5088 33.0088 99.5588 33.0488L111.779 41.6188C111.829 41.6588 111.859 41.7188 111.849 41.7788C111.849 41.8088 111.839 41.8388 111.819 41.8588ZM102.219 45.4488L111.309 41.7188L99.4288 33.3888L90.3388 37.1188L102.219 45.4488Z" fill="#00A5CF"/>
<path d="M111.817 41.8615C111.817 41.8615 111.767 41.9115 111.737 41.9215C111.687 41.9415 111.627 41.9315 111.577 41.9015L99.3574 33.3315C99.2974 33.2915 99.2674 33.2115 99.2874 33.1415L102.487 20.7515C102.497 20.6915 102.537 20.6515 102.597 20.6315C102.647 20.6115 102.707 20.6215 102.757 20.6515L114.977 29.2215C115.037 29.2615 115.067 29.3415 115.047 29.4115L111.847 41.8015C111.847 41.8015 111.837 41.8415 111.817 41.8615ZM99.6574 33.1215L111.567 41.4715L114.677 29.4415L102.767 21.0915L99.6574 33.1215Z" fill="#00A5CF"/>
<path d="M138.527 41.1513C138.527 41.1513 134.987 40.0213 135.257 36.6213C135.527 33.2213 138.867 30.6913 145.747 33.1413C151.597 27.8313 157.867 30.8813 159.557 34.3713C161.247 37.8513 159.537 42.2713 159.447 44.8113C159.347 47.3613 160.887 54.8213 158.637 60.0113C158.637 60.0113 154.037 59.2613 148.067 59.6513C142.097 60.0413 138.797 60.9113 138.797 60.9113C138.797 60.9113 135.477 55.1013 137.017 49.7313C138.557 44.3613 138.517 41.1513 138.517 41.1513H138.527Z" fill="#212C53"/>
<path d="M145.258 58.2803V62.7003L154.738 62.5003L156.028 50.3203L145.258 58.2803Z" fill="#F3A086"/>
<path d="M156.703 49.8816C156.703 49.8816 155.083 54.7016 151.733 56.9716C148.373 59.2416 142.993 59.0016 141.693 58.4616C140.393 57.9216 138.843 56.5316 138.513 50.4716C138.233 45.3616 139.383 45.7116 139.423 44.1016C139.463 42.4916 138.563 40.7016 139.123 38.1016C139.423 36.6816 151.213 37.6616 151.253 37.6616C151.293 37.6616 155.643 41.3116 155.643 41.3116L157.703 48.2516L156.703 49.8916V49.8816Z" fill="#F6B58E"/>
<path d="M158.119 43.4883H151.609V47.2283H158.119V43.4883Z" fill="#018AAA"/>
<path d="M155.409 48.3702C155.409 48.3702 155.939 45.9902 157.409 46.4702C160.089 47.3402 156.789 51.5902 156.009 51.0202C155.229 50.4402 155.409 48.3702 155.409 48.3702Z" fill="#F3A086"/>
<path d="M143.52 41.2111C148.99 41.3311 148.52 40.0211 151.7 40.2911C150.16 41.5511 150.08 44.4711 150.08 45.5311C150.08 46.5911 150.02 49.8511 151.7 50.7111C149.72 51.0711 146.1 50.0011 143.52 50.0011C140.94 50.0011 137.38 50.7911 136.07 50.7811C134.76 50.7711 133.92 48.9111 133.81 45.2511C133.69 41.5911 135.48 40.1811 136.52 39.9711C137.56 39.7611 139.56 41.1311 143.52 41.2211V41.2111Z" fill="#00A5CF"/>
<path d="M151.701 50.7091C152.7 50.7091 153.511 48.3765 153.511 45.4991C153.511 42.6217 152.7 40.2891 151.701 40.2891C150.701 40.2891 149.891 42.6217 149.891 45.4991C149.891 48.3765 150.701 50.7091 151.701 50.7091Z" fill="#5ECAEA"/>
<path d="M136.643 35.2405C135.813 35.6505 135.313 36.1105 135.273 36.6205C137.313 42.2605 144.213 39.4605 147.423 40.3905C154.173 42.3505 157.033 46.4205 159.463 44.8005C159.563 42.2505 159.973 38.7105 158.273 35.2305H136.643V35.2405Z" fill="#212C53"/>
<path d="M136.961 104.781C136.961 104.781 134.561 98.7113 133.511 92.8213C132.461 86.9313 128.551 68.0313 138.471 64.3513C148.391 60.6713 162.001 63.0313 169.661 65.9413C177.321 68.8513 165.831 97.6113 166.241 105.071C162.731 105.071 136.961 104.781 136.961 104.781Z" fill="#00A5CF"/>
<path d="M127.558 64.7011C127.558 64.7011 125.808 61.7811 125.808 60.1511C125.808 58.5211 127.558 51.0711 127.558 51.0711C127.558 51.0711 125.748 50.9411 125.398 51.6411C125.048 52.3411 124.818 55.6711 123.468 55.4311C122.118 55.1911 117.988 43.6411 115.998 43.5011C114.008 43.3611 109.818 56.9511 111.268 58.2311C112.718 59.5111 119.198 62.2211 120.078 62.7011C120.958 63.1911 123.868 67.8511 123.868 67.8511L127.548 64.7011H127.558Z" fill="#F6B58E"/>
<path d="M121.203 68.4392L128.733 62.6992L152.073 88.5092C152.073 88.5092 156.773 71.4192 159.583 68.3192C162.393 65.2292 164.493 64.6392 168.343 65.5192C172.193 66.3992 174.173 69.4892 173.363 75.2592C172.543 81.0392 165.203 98.6992 162.403 102.669C159.603 106.639 152.623 107.569 147.373 102.669C142.123 97.7692 126.103 76.7192 121.203 68.4392Z" fill="#018AAA"/>
<path d="M138.579 239.079L137.569 233.279C137.469 232.679 136.869 232.309 136.289 232.479L132.539 233.569C132.169 233.679 131.769 233.569 131.509 233.279L128.209 229.689C128.019 229.479 127.749 229.359 127.459 229.359H125.169C124.959 229.359 124.749 229.429 124.579 229.549L116.759 235.159C116.759 235.159 113.609 235.739 110.569 235.739C104.419 235.739 104.579 241.759 104.579 241.759H138.579V239.079Z" fill="#00A5CF"/>
<path d="M138.579 239.602H104.929C104.549 240.772 104.579 241.762 104.579 241.762H138.579V239.602Z" fill="#018AAA"/>
<path d="M166.352 241.18H191.342C191.342 241.18 191.212 237.48 190.792 236.61C190.372 235.74 182.382 231.26 182.382 231.26C182.382 231.26 181.252 227.33 180.322 227.04C179.392 226.75 173.172 227.43 173.072 227.52C172.972 227.61 171.392 232.64 171.392 232.64L168.812 232.93L168.512 232.04C168.042 231.94 167.592 232.25 167.502 232.72L166.352 239.14V241.17V241.18Z" fill="#018AAA"/>
<path d="M190.789 236.61C190.369 235.74 182.379 231.26 182.379 231.26C182.379 231.26 181.249 227.33 180.319 227.04C179.389 226.75 173.169 227.43 173.069 227.52C173.009 227.58 173.379 231.68 173.379 231.68C173.409 231.79 179.929 235.73 180.349 236.6C180.769 237.47 180.899 241.17 180.899 241.17H191.339C191.339 241.17 191.209 237.47 190.789 236.6V236.61Z" fill="#00A5CF"/>
<path d="M166.352 241.181H191.342C191.342 241.181 191.312 240.251 191.222 239.211H166.352V241.181Z" fill="#018AAA"/>
<path d="M3.52812 111.869L1.57812 116.439L6.21812 115.049L22.0081 108.879L3.52812 111.869Z" fill="#018AAA"/>
<path d="M1.57812 116.439L9.55813 115.399L7.52813 114.539L1.57812 116.439Z" fill="#00A5CF"/>
<path d="M3.53375 111.872L1.84375 107.672L22.0138 108.882L3.53375 111.872Z" fill="url(#paint1_linear_5354_24150)"/>
<path d="M22.0088 108.879L6.21875 115.049L9.03875 121.089L22.0088 108.879Z" fill="url(#paint2_linear_5354_24150)"/>
<path d="M3.65438 120.762C3.65438 120.762 3.57438 120.712 3.53438 120.682C3.38437 120.532 3.38437 120.292 3.53438 120.152C4.00437 119.692 4.50437 119.272 5.04437 118.902C5.21437 118.782 5.45438 118.832 5.56437 119.002C5.68437 119.172 5.63438 119.412 5.46438 119.522C4.96438 119.862 4.49437 120.252 4.06437 120.682C3.95437 120.792 3.78438 120.822 3.65438 120.762Z" fill="#00A5CF"/>
<path d="M11.791 161.72C11.791 161.72 11.771 161.72 11.771 161.71C10.641 161.14 9.58103 160.34 8.64103 159.35C8.50103 159.2 8.50103 158.96 8.66103 158.82C8.81103 158.68 9.05103 158.69 9.19103 158.83C10.081 159.77 11.061 160.51 12.111 161.04C12.301 161.13 12.371 161.36 12.281 161.55C12.191 161.73 11.981 161.81 11.791 161.73V161.72ZM7.34103 157.64C7.27103 157.61 7.22103 157.57 7.17103 157.5C6.45103 156.41 5.88103 155.22 5.48103 153.98C5.42103 153.78 5.53103 153.57 5.73103 153.5C5.93103 153.44 6.14103 153.55 6.20103 153.74C6.58103 154.92 7.11103 156.04 7.80103 157.08C7.91103 157.25 7.87103 157.49 7.69103 157.6C7.58103 157.67 7.45103 157.68 7.33103 157.63L7.34103 157.64ZM5.19103 151.98C5.07103 151.93 4.98103 151.82 4.96103 151.68L4.94103 151.5C4.80103 150.31 4.78103 149.06 4.88103 147.79C4.90103 147.58 5.08103 147.43 5.29103 147.45C5.50103 147.47 5.65103 147.65 5.63103 147.86C5.53103 149.08 5.54103 150.27 5.68103 151.41L5.70103 151.58C5.73103 151.79 5.58103 151.98 5.38103 152.01C5.31103 152.01 5.24103 152.01 5.18103 151.98H5.19103ZM5.43103 145.91C5.27103 145.84 5.17103 145.67 5.21103 145.49C5.44103 144.3 5.78103 143.05 6.22103 141.76C6.29103 141.56 6.50103 141.46 6.70103 141.53C6.89103 141.59 7.00103 141.81 6.93103 142.01C6.50103 143.26 6.17103 144.48 5.95103 145.64C5.91103 145.84 5.71103 145.98 5.51103 145.94C5.48103 145.94 5.46103 145.93 5.43103 145.92V145.91ZM7.24103 140.09C7.05103 140.01 6.96103 139.79 7.04103 139.6C7.08103 139.51 7.11103 139.43 7.15103 139.34C6.56103 139.11 5.99103 138.84 5.44103 138.53C5.26103 138.43 5.20103 138.2 5.30103 138.01C5.40103 137.83 5.63103 137.76 5.82103 137.87C6.34103 138.17 6.88103 138.43 7.45103 138.64C7.80103 137.84 8.19103 137 8.64103 136.1C8.73103 135.91 8.96103 135.84 9.15103 135.93C9.34103 136.02 9.41103 136.25 9.32103 136.44C8.89103 137.31 8.51103 138.12 8.17103 138.89C8.53103 139 8.90103 139.1 9.27103 139.17C9.48103 139.21 9.61103 139.41 9.56103 139.62C9.52103 139.82 9.32103 139.96 9.11103 139.91C8.69103 139.82 8.27103 139.71 7.86103 139.59C7.82103 139.69 7.78103 139.79 7.74103 139.88C7.66103 140.07 7.44103 140.16 7.25103 140.09H7.24103ZM3.63103 137.22C3.63103 137.22 3.56103 137.18 3.53103 137.15C2.92103 136.6 2.37103 135.98 1.92103 135.32C1.64103 134.91 1.38103 134.47 1.16103 134.01C1.07103 133.82 1.15103 133.6 1.33103 133.5C1.52103 133.41 1.74103 133.49 1.84103 133.67C2.05103 134.09 2.29103 134.5 2.55103 134.88C2.97103 135.49 3.48103 136.06 4.04103 136.57C4.20103 136.71 4.21103 136.95 4.07103 137.1C3.96103 137.22 3.79103 137.26 3.64103 137.2L3.63103 137.22ZM11.311 140.15C11.171 140.09 11.081 139.95 11.081 139.8C11.081 139.59 11.261 139.43 11.461 139.43C12.721 139.45 13.951 139.28 15.091 138.9C15.291 138.83 15.501 138.94 15.571 139.14C15.631 139.34 15.531 139.55 15.331 139.62C14.101 140.02 12.801 140.21 11.451 140.19C11.401 140.19 11.351 140.18 11.311 140.16V140.15ZM0.571027 132.05C0.461027 132.01 0.381027 131.91 0.351027 131.79C0.0410268 130.53 -0.0589732 129.22 0.0510268 127.88C0.0710268 127.67 0.251027 127.52 0.461027 127.53C0.671027 127.55 0.821027 127.73 0.811027 127.94C0.711027 129.2 0.811027 130.43 1.09103 131.61C1.14103 131.81 1.02103 132.02 0.811027 132.07C0.731027 132.09 0.641027 132.08 0.571027 132.05ZM17.151 138.66C17.081 138.63 17.021 138.58 16.971 138.51C16.861 138.33 16.921 138.1 17.101 137.99C17.371 137.83 17.641 137.65 17.891 137.46C18.601 136.93 19.221 136.25 19.691 135.49C19.801 135.31 20.031 135.26 20.211 135.37C20.391 135.48 20.441 135.71 20.331 135.89C19.811 136.73 19.121 137.48 18.341 138.07C18.071 138.27 17.781 138.46 17.491 138.64C17.381 138.7 17.251 138.71 17.151 138.66ZM9.89103 134.59C9.89103 134.59 9.87103 134.58 9.86103 134.57C9.68103 134.47 9.61103 134.24 9.71103 134.06C10.471 132.69 11.181 131.68 11.961 130.87C12.111 130.72 12.341 130.72 12.491 130.87C12.641 131.01 12.641 131.25 12.491 131.4C11.761 132.15 11.081 133.12 10.361 134.43C10.271 134.6 10.061 134.67 9.88103 134.59H9.89103ZM0.661027 126.01C0.491027 125.94 0.391027 125.75 0.441027 125.56C0.601027 124.98 0.791027 124.41 1.03103 123.87C1.31103 123.21 1.65103 122.57 2.04103 121.98C2.15103 121.8 2.39103 121.75 2.56103 121.87C2.73103 121.98 2.78103 122.22 2.67103 122.39C2.31103 122.94 1.99103 123.54 1.73103 124.16C1.51103 124.67 1.33103 125.21 1.18103 125.75C1.13103 125.95 0.921027 126.07 0.721027 126.02C0.701027 126.02 0.691027 126.01 0.671027 126L0.661027 126.01ZM20.701 133.92C20.541 133.85 20.451 133.68 20.481 133.51C20.641 132.59 20.511 131.77 20.071 131.06C19.921 130.81 19.731 130.58 19.511 130.38C19.361 130.24 19.341 130 19.481 129.85C19.621 129.69 19.861 129.68 20.011 129.82C20.281 130.07 20.521 130.35 20.711 130.66C21.241 131.52 21.421 132.55 21.221 133.64C21.181 133.85 20.991 133.98 20.781 133.94C20.751 133.94 20.721 133.93 20.701 133.92ZM13.871 130.08C13.791 130.05 13.731 129.99 13.691 129.91C13.591 129.73 13.661 129.5 13.841 129.4C15.031 128.75 16.471 128.52 17.781 128.76C17.981 128.8 18.121 128.99 18.081 129.2C18.041 129.4 17.851 129.54 17.641 129.5C16.511 129.29 15.221 129.5 14.191 130.06C14.081 130.12 13.961 130.12 13.861 130.08H13.871Z" fill="#00A5CF"/>
<path d="M13.971 162.501C13.811 162.431 13.711 162.251 13.751 162.071C13.791 161.871 13.991 161.741 14.201 161.781C14.791 161.911 15.391 161.971 15.991 161.961C16.201 161.961 16.371 162.121 16.371 162.331C16.371 162.541 16.211 162.711 16.001 162.711C15.341 162.711 14.691 162.651 14.041 162.511C14.021 162.511 13.991 162.501 13.971 162.491V162.501Z" fill="#00A5CF"/>
<path d="M147.703 6.43L161.453 0.63L168.233 0L173.163 1.27L147.703 6.43Z" fill="url(#paint3_linear_5354_24150)"/>
<path d="M147.703 6.42953L172.703 2.73953L173.163 1.26953" fill="#018AAA"/>
<path d="M172.948 6.99141L172.918 7.04141L171.498 10.7114L147.758 6.44141L172.948 6.99141Z" fill="#00A5CF"/>
<path d="M177.829 5.25813L174.659 2.07812L147.859 6.40812L170.359 8.09813L177.829 5.25813Z" fill="url(#paint4_linear_5354_24150)"/>
<path d="M227.498 59.2486C226.728 58.8886 225.978 58.4586 225.268 57.9886C225.108 57.8786 224.888 57.9286 224.778 58.0886C224.668 58.2486 224.718 58.4686 224.878 58.5786C225.618 59.0686 226.408 59.5086 227.198 59.8886C227.488 60.0286 227.778 60.1586 228.068 60.2786C228.178 60.3286 228.288 60.3086 228.388 60.2586C228.448 60.2186 228.508 60.1586 228.538 60.0886C228.618 59.9086 228.538 59.6986 228.348 59.6186C228.068 59.4986 227.788 59.3786 227.508 59.2386L227.498 59.2486Z" fill="#00A5CF"/>
<path d="M185.221 3.37891C184.101 3.40891 182.931 3.46891 181.651 3.56891C181.451 3.58891 181.311 3.75891 181.321 3.94891C181.341 4.14891 181.511 4.28891 181.701 4.27891C182.971 4.17891 184.131 4.11891 185.231 4.09891C185.291 4.09891 185.351 4.07891 185.401 4.04891C185.511 3.98891 185.581 3.86891 185.581 3.73891C185.581 3.53891 185.411 3.38891 185.221 3.38891V3.37891Z" fill="#00A5CF"/>
<path d="M191.088 4.26891C191.178 4.21891 191.248 4.11891 191.258 3.99891C191.278 3.79891 191.138 3.62891 190.948 3.60891C189.818 3.47891 188.608 3.39891 187.368 3.37891C187.168 3.37891 187.008 3.52891 187.008 3.72891C187.008 3.92891 187.158 4.08891 187.358 4.08891C188.578 4.11891 189.758 4.18891 190.868 4.31891C190.948 4.31891 191.028 4.31891 191.088 4.26891Z" fill="#00A5CF"/>
<path d="M221.128 54.2688C220.998 54.1188 220.778 54.0888 220.628 54.2188C220.478 54.3488 220.458 54.5688 220.578 54.7188C221.348 55.6488 222.208 56.5088 223.128 57.2788C223.248 57.3788 223.408 57.3888 223.538 57.3088C223.568 57.2888 223.608 57.2588 223.628 57.2288C223.758 57.0788 223.738 56.8588 223.578 56.7288C222.688 55.9888 221.858 55.1588 221.118 54.2588L221.128 54.2688Z" fill="#00A5CF"/>
<path d="M219.78 53.0784C219.94 52.9684 219.99 52.7484 219.88 52.5884C219.71 52.3184 219.54 52.0584 219.38 51.7784C218.95 51.0484 218.57 50.2884 218.25 49.5084C218.17 49.3284 217.97 49.2384 217.79 49.3184C217.61 49.3984 217.52 49.5984 217.6 49.7784C217.93 50.5784 218.33 51.3784 218.78 52.1384C218.95 52.4184 219.12 52.6984 219.3 52.9784C219.4 53.1384 219.61 53.1884 219.78 53.0884H219.79L219.78 53.0784Z" fill="#00A5CF"/>
<path d="M217.311 47.9805C217.311 47.9805 217.371 47.9605 217.391 47.9505C217.531 47.8705 217.601 47.7005 217.551 47.5405C217.241 46.4805 217.001 45.3605 216.821 44.1205C216.791 43.9305 216.611 43.7905 216.421 43.8205C216.231 43.8505 216.091 44.0305 216.121 44.2205C216.301 45.4905 216.551 46.6505 216.871 47.7405C216.921 47.9305 217.121 48.0405 217.311 47.9805Z" fill="#00A5CF"/>
<path d="M211.114 16.8195C211.374 17.2095 211.614 17.6095 211.854 18.0095C212.214 18.6195 212.544 19.2395 212.854 19.8695C212.944 20.0495 213.154 20.1195 213.334 20.0295C213.334 20.0295 213.354 20.0295 213.354 20.0195C213.514 19.9295 213.574 19.7295 213.494 19.5595C213.184 18.9195 212.834 18.2795 212.464 17.6495C212.224 17.2395 211.964 16.8295 211.704 16.4295C211.594 16.2695 211.384 16.1995 211.214 16.3295C211.054 16.4395 211.004 16.6595 211.114 16.8195Z" fill="#00A5CF"/>
<path d="M213.701 21.7884C214.131 22.8784 214.491 24.0084 214.771 25.1284C214.821 25.3184 215.011 25.4384 215.201 25.3884C215.231 25.3884 215.271 25.3684 215.301 25.3484C215.431 25.2684 215.501 25.1084 215.461 24.9584C215.181 23.8084 214.811 22.6484 214.371 21.5284C214.301 21.3484 214.091 21.2584 213.911 21.3284C213.731 21.3984 213.641 21.6084 213.711 21.7884H213.701Z" fill="#00A5CF"/>
<path d="M207.574 12.4588C208.394 13.2888 209.174 14.1788 209.884 15.0988C209.994 15.2388 210.194 15.2787 210.344 15.1887C210.354 15.1887 210.374 15.1688 210.384 15.1588C210.544 15.0388 210.564 14.8188 210.444 14.6588C209.714 13.7188 208.924 12.7988 208.074 11.9488C207.934 11.8088 207.714 11.8088 207.574 11.9488C207.434 12.0888 207.434 12.3088 207.574 12.4488V12.4588Z" fill="#00A5CF"/>
<path d="M201.484 7.7508C201.594 7.8208 201.734 7.8108 201.844 7.7508C201.894 7.7208 201.944 7.6808 201.974 7.6208C202.074 7.4508 202.014 7.2308 201.844 7.1308C200.804 6.5308 199.714 6.0008 198.614 5.5408C198.434 5.4708 198.224 5.5508 198.154 5.7308C198.074 5.9108 198.164 6.1208 198.344 6.1908C199.414 6.6308 200.474 7.1508 201.494 7.7408L201.484 7.7508Z" fill="#00A5CF"/>
<path d="M216.053 36.7075C216.123 36.7075 216.183 36.6875 216.233 36.6575C216.343 36.5975 216.413 36.4775 216.403 36.3475V35.8975C216.393 34.8575 216.383 33.8175 216.353 32.7875C216.353 32.5875 216.183 32.4375 215.983 32.4375C215.783 32.4375 215.633 32.6075 215.633 32.8075C215.663 33.8375 215.673 34.8775 215.683 35.9075V36.3575C215.683 36.5575 215.853 36.7075 216.043 36.7075H216.053Z" fill="#00A5CF"/>
<path d="M206.041 11.0186C206.161 11.1186 206.331 11.1286 206.451 11.0586C206.481 11.0386 206.511 11.0186 206.541 10.9886C206.671 10.8386 206.651 10.6186 206.511 10.4886C205.611 9.69863 204.651 8.95863 203.661 8.28863C203.501 8.17863 203.281 8.21863 203.171 8.37863C203.061 8.53863 203.101 8.75863 203.261 8.86863C204.221 9.51863 205.161 10.2486 206.041 11.0186Z" fill="#00A5CF"/>
<path d="M216.061 38.1389C215.861 38.1389 215.711 38.3089 215.711 38.4989C215.741 39.8989 215.791 41.0289 215.881 42.0689C215.901 42.2689 216.071 42.4089 216.261 42.3989C216.321 42.3989 216.371 42.3789 216.411 42.3489C216.521 42.2789 216.601 42.1589 216.581 42.0089C216.501 40.9789 216.441 39.8589 216.421 38.4789C216.421 38.2789 216.251 38.1289 216.061 38.1289V38.1389Z" fill="#00A5CF"/>
<path d="M230.324 60.3406C230.134 60.2806 229.934 60.3906 229.884 60.5806C229.824 60.7706 229.934 60.9706 230.124 61.0206C231.204 61.3506 232.344 61.6306 233.624 61.8506C233.714 61.8706 233.794 61.8506 233.864 61.8106C233.954 61.7606 234.014 61.6706 234.034 61.5706C234.064 61.3806 233.944 61.1906 233.744 61.1606C232.504 60.9406 231.384 60.6706 230.334 60.3506L230.324 60.3406Z" fill="#00A5CF"/>
<path d="M215.468 26.7875C215.278 26.8175 215.138 26.9975 215.168 27.1975C215.338 28.2675 215.458 29.4075 215.538 30.6975C215.548 30.8975 215.718 31.0375 215.918 31.0275C215.978 31.0275 216.028 31.0075 216.078 30.9775C216.188 30.9075 216.258 30.7875 216.248 30.6475C216.168 29.3375 216.048 28.1675 215.868 27.0775C215.838 26.8875 215.658 26.7475 215.458 26.7775L215.468 26.7875Z" fill="#00A5CF"/>
<path d="M194.311 4.18035C193.901 4.09035 193.491 4.00035 193.081 3.93035C192.891 3.90035 192.701 4.02035 192.671 4.22035C192.631 4.41035 192.761 4.60035 192.961 4.63035C193.361 4.70035 193.761 4.78035 194.161 4.87035C194.901 5.04035 195.641 5.24035 196.361 5.48035C196.461 5.51035 196.571 5.50035 196.651 5.45035C196.721 5.41035 196.781 5.34035 196.811 5.25035C196.871 5.06035 196.771 4.86035 196.581 4.80035C195.841 4.56035 195.071 4.35035 194.311 4.18035Z" fill="#00A5CF"/>
<path fill-rule="evenodd" clip-rule="evenodd" d="M147.853 42.4014H136.683C136.553 42.4014 136.453 42.2914 136.453 42.1714C136.453 42.0414 136.563 41.9414 136.683 41.9414H147.853C147.983 41.9414 148.083 42.0514 148.083 42.1714C148.083 42.3014 147.973 42.4014 147.853 42.4014Z" fill="url(#paint5_linear_5354_24150)"/>
</g>
<defs>
<linearGradient id="paint0_linear_5354_24150" x1="224.977" y1="130.589" x2="233.947" y2="130.589" gradientUnits="userSpaceOnUse">
<stop stop-color="#F1F9F8"/>
<stop offset="1" stop-color="#BFE3EE"/>
</linearGradient>
<linearGradient id="paint1_linear_5354_24150" x1="22.039" y1="108.435" x2="2.03403" y2="109.778" gradientUnits="userSpaceOnUse">
<stop stop-color="#F1F9F8"/>
<stop offset="1" stop-color="#BFE3EE"/>
</linearGradient>
<linearGradient id="paint2_linear_5354_24150" x1="22.4405" y1="114.489" x2="6.30683" y2="115.572" gradientUnits="userSpaceOnUse">
<stop stop-color="#F1F9F8"/>
<stop offset="1" stop-color="#BFE3EE"/>
</linearGradient>
<linearGradient id="paint3_linear_5354_24150" x1="172.808" y1="4.70807" x2="148.155" y2="2.1082" gradientUnits="userSpaceOnUse">
<stop stop-color="#F1F9F8"/>
<stop offset="1" stop-color="#BFE3EE"/>
</linearGradient>
<linearGradient id="paint4_linear_5354_24150" x1="177.765" y1="5.91311" x2="148.239" y2="2.79936" gradientUnits="userSpaceOnUse">
<stop stop-color="#F1F9F8"/>
<stop offset="1" stop-color="#BFE3EE"/>
</linearGradient>
<linearGradient id="paint5_linear_5354_24150" x1="136.443" y1="42.1714" x2="148.083" y2="42.1714" gradientUnits="userSpaceOnUse">
<stop stop-color="#F1F9F8"/>
<stop offset="1" stop-color="#BFE3EE"/>
</linearGradient>
<clipPath id="clip0_5354_24150">
<rect width="255.05" height="241.76" fill="white"/>
</clipPath>
</defs>
</svg>
