<svg width="270" height="231" viewBox="0 0 270 231" fill="none" xmlns="http://www.w3.org/2000/svg">
<g clip-path="url(#clip0_5363_26296)">
<path d="M118.672 77.1097L118.072 76.7797C109.762 72.2497 100.842 78.9697 92.2316 81.7797C82.3516 85.0097 68.9516 84.2397 61.5416 78.4697C56.4916 74.5397 55.6916 63.5997 55.7416 41.5997C55.7716 26.8197 53.6416 17.3297 63.6116 12.9297C71.4416 9.46974 86.3616 8.48974 100.912 12.9897C106.502 14.7197 111.202 18.8697 112.142 27.6997C114.102 46.0897 112.502 63.3197 112.502 63.3197L118.682 77.1097H118.672Z" fill="#00A5CF"/>
<path d="M76.7209 100.141L92.9809 103.521L104.641 103.471C104.641 103.471 104.541 104.571 102.861 104.731C101.181 104.891 99.9909 104.991 99.9909 104.991C99.9909 104.991 99.8209 108.091 96.1209 108.141C93.6809 107.161 93.1209 106.971 93.1209 106.971L76.2109 106.151L76.7209 100.141Z" fill="#FBBFA1"/>
<path d="M48.8609 75.8086L67.5409 95.7586L80.9109 99.6686L79.4709 107.799L63.3609 106.399L47.7109 91.7086L48.8609 75.8086Z" fill="#018AAA"/>
<path d="M30.4335 60.3594C30.0035 65.2794 31.9335 68.6494 31.8935 72.5894C31.8335 79.5694 19.4635 93.1994 18.7635 105.259C18.1635 115.539 23.6535 122.229 31.6235 127.029C39.5935 131.829 42.8835 86.6994 42.8835 86.6994L37.5035 66.8694L30.4435 60.3594H30.4335Z" fill="#212C55"/>
<path d="M27.17 75.2309C27.17 75.2309 33.25 74.0609 40.03 74.0009C46.81 73.9409 50.26 74.3909 51.06 78.0409C51.86 81.7009 47.35 103.921 47.37 111.861C44.45 112.311 26.4 111.501 26.4 111.501C26.4 111.501 26.75 105.281 25.57 97.6409C24.39 90.0009 19.22 78.7709 27.17 75.2209V75.2309Z" fill="#00A5CF"/>
<path d="M50.5503 73.1214C50.0203 71.1514 46.3703 68.2814 45.4703 68.9614C44.5703 69.6414 45.7003 79.0614 45.7003 79.0614L34.8203 98.2414L42.0303 97.5014L48.8103 80.3814L49.8603 78.9614C51.0003 77.2314 51.0703 75.1014 50.5403 73.1214H50.5503Z" fill="#FBBFA1"/>
<path d="M46.7266 54.7611L45.7266 57.5811L48.2866 63.5711C48.2866 63.5711 48.5266 63.4511 49.4066 61.9611C50.2866 60.4711 51.1066 57.1411 51.1066 57.1411L49.4566 54.6211L46.7266 54.7711V54.7611Z" fill="#212C55"/>
<path d="M40.0337 74.0117C37.6337 74.0317 35.3238 74.1917 33.3438 74.3917C33.7937 75.8717 35.3137 79.2917 39.6737 79.2917C43.8037 79.2917 45.1637 75.9417 45.5938 74.2117C44.0737 74.0317 42.2237 74.0017 40.0337 74.0217V74.0117Z" fill="#FBBFA1"/>
<path d="M44.25 54.6082C44.25 54.6082 48.25 50.7482 51.14 54.1782C52.9 56.2682 51.05 61.0582 48.6 63.7282C47.27 63.0982 48.32 63.1782 48.32 63.1782C48.32 63.1782 51.4 58.6582 49.47 56.1582C48.49 54.8882 46.2 55.7682 46.2 55.7682L44.26 54.6082H44.25Z" fill="#0B3D60"/>
<path d="M35.9766 63.15L36.3066 63.44L36.2166 74.26C36.2166 74.26 36.6966 76.69 39.3466 76.69C41.9966 76.69 43.2166 74.28 43.2166 74.28L42.8766 65.26L37.2066 63L35.9866 63.15H35.9766Z" fill="#F9AF8E"/>
<path d="M36.9994 53.8711C32.5294 55.0211 32.6494 61.0911 34.1394 62.7411C35.6294 64.3911 39.4594 64.4311 39.4594 64.4311C39.4594 64.4311 40.2794 71.3711 46.2494 71.4511C47.8294 71.4911 49.2594 68.5211 49.3194 62.1011C49.3494 58.1811 47.4294 51.1711 36.9994 53.8611V53.8711Z" fill="#FBBFA1"/>
<path d="M22.7562 83.9215C24.5762 91.3715 29.6362 101.972 31.9862 105.622C34.3362 109.262 36.8962 107.951 39.2662 104.692C41.6362 101.432 46.4062 91.1615 46.4062 91.1615L39.9962 87.4315L37.1062 92.0115C37.1062 92.0115 34.4062 81.4115 33.0262 78.0715C31.6462 74.7315 27.6962 74.5615 25.5262 75.8815C23.3462 77.1915 21.7362 79.8215 22.7462 83.9315L22.7562 83.9215Z" fill="#018AAA"/>
<path d="M48.0222 52.7695C46.0022 52.9195 44.2422 54.6095 44.2422 54.6095L46.1822 55.7695C46.1822 55.7695 47.0822 55.4195 47.9922 55.4795L48.0122 52.7795L48.0222 52.7695Z" fill="#0B3D60"/>
<path d="M47.3775 113.988L55.8375 157.038C55.8375 157.038 55.6475 186.668 56.7575 216.018C55.4275 218.718 49.6875 217.478 49.3775 216.018C47.7575 203.788 41.9475 184.588 41.6575 174.828C41.3675 165.068 42.4575 163.528 42.4575 163.528C42.4575 163.528 24.0175 135.948 25.1775 125.788C26.3375 115.638 30.6475 113.328 30.6475 113.328L47.3875 113.988H47.3775Z" fill="#444545"/>
<path d="M26.133 113.498C26.133 113.498 20.323 119.778 19.113 125.868C17.913 131.958 24.183 155.218 25.103 163.608C20.653 171.898 23.083 207.168 22.583 215.388C28.193 216.968 29.193 215.258 30.513 215.058C32.883 191.238 38.443 165.878 38.443 165.878C39.963 143.038 41.433 113.328 41.433 113.328L26.133 113.488V113.498Z" fill="#565656"/>
<path d="M26.0212 215.709L25.7812 215.689C28.0612 192.049 31.0312 166.839 31.2812 165.089L29.5712 164.419H31.9513L31.0312 163.959V163.889C30.8412 159.079 29.9312 152.619 29.0612 146.369C27.9012 138.059 26.8012 130.219 27.3312 126.319C28.3712 118.619 32.1913 113.409 32.2213 113.359L32.4112 113.499C32.3712 113.549 28.5912 118.719 27.5612 126.349C27.0412 130.219 28.1313 138.049 29.2913 146.339C30.1613 152.569 31.0612 158.999 31.2612 163.819L32.9612 164.669H30.8212L31.5312 164.949V165.039C31.4812 165.309 28.3612 191.359 26.0112 215.719L26.0212 215.709Z" fill="white"/>
<path d="M36.5337 113.789C36.4537 113.789 36.3738 113.789 36.2938 113.789C36.4038 115.129 36.2537 117.399 34.5537 119.649C32.7037 122.099 30.1538 122.989 28.7838 123.299C28.7238 123.389 28.6537 123.489 28.5938 123.579C29.9238 123.309 32.7338 122.449 34.7438 119.789C36.4738 117.499 36.6337 115.179 36.5238 113.789H36.5337Z" fill="white"/>
<path d="M44.3203 113.992L45.1503 114.022C44.8603 113.982 44.5803 113.952 44.3203 113.992Z" fill="white"/>
<path d="M48.7298 121.723C47.7698 121.443 46.2298 120.743 45.1398 118.993C43.9998 117.163 43.9898 115.013 44.0598 114.023C43.9798 114.023 43.8998 114.043 43.8198 114.043C43.7498 115.073 43.7698 117.253 44.9398 119.113C46.1398 121.033 47.8598 121.733 48.8298 121.983C48.7998 121.893 48.7698 121.803 48.7298 121.713V121.723Z" fill="white"/>
<path d="M46.4709 55.0512C46.4709 55.0512 47.8109 62.1012 40.5409 63.1912C38.4809 65.0712 37.0809 65.1412 36.2509 69.5812C35.4209 74.0212 28.2409 65.0512 31.0709 58.0712C33.8909 51.0912 39.0309 51.2412 41.1809 51.3312C43.3309 51.4212 46.2609 52.3912 46.4709 55.0512Z" fill="#212C55"/>
<path d="M33.5616 98.7114L33.3516 98.6014L37.0316 91.9414L37.2316 92.0514L33.5616 98.7114Z" fill="#CDE8E8"/>
<path d="M26.4028 111.512L26.1328 113.502L47.3828 113.992L47.3728 111.872L26.4028 111.512Z" fill="#018AAA"/>
<path d="M21.9434 215.091L31.1934 214.871L36.4934 224.301C36.4934 224.301 38.4434 225.531 43.1134 225.411C44.4734 226.661 44.5434 229.671 44.5434 229.671H32.8734C32.8734 229.671 29.9834 225.511 26.4634 223.691C26.4234 227.921 26.4134 229.671 26.4134 229.671H21.5234L21.9334 215.091H21.9434Z" fill="#00A5CF"/>
<path d="M48.4694 215.091L57.5094 214.871L62.8294 224.301C62.8294 224.301 64.7794 225.531 69.4494 225.411C70.8094 226.661 70.8794 229.671 70.8794 229.671H59.2094C59.2094 229.671 56.3194 225.511 52.7994 223.691C52.7594 227.921 52.7494 229.671 52.7494 229.671H47.8594L48.4594 215.091H48.4694Z" fill="#00A5CF"/>
<path d="M21.5834 227.641L21.5234 229.661H26.4134C26.4134 229.661 26.4134 229.041 26.4334 227.641H21.5834Z" fill="#018AAA"/>
<path d="M31.25 227.641C32.26 228.771 32.88 229.661 32.88 229.661H44.55C44.55 229.661 44.53 228.701 44.26 227.641H31.25Z" fill="#018AAA"/>
<path d="M47.9472 227.641L47.8672 229.661H52.7572C52.7572 229.661 52.7572 229.041 52.7772 227.641H47.9572H47.9472Z" fill="#018AAA"/>
<path d="M57.5938 227.641C58.6037 228.771 59.2238 229.661 59.2238 229.661H70.8937C70.8937 229.661 70.8737 228.701 70.6037 227.641H57.5938Z" fill="#018AAA"/>
<path d="M91.1319 102.629C91.2019 102.629 90.6719 107.799 90.6719 107.799L93.3519 107.989L93.8619 103.119L91.1419 102.629H91.1319Z" fill="#5DCAEC"/>
<path d="M89.8766 102.631L89.2266 107.341H89.6766L90.4066 102.621L89.8766 102.631Z" fill="#5DCAEC"/>
<path d="M40.8951 63.5869C40.9115 62.3664 40.3428 61.3692 39.6249 61.3596C38.907 61.3499 38.3117 62.3315 38.2953 63.5519C38.2789 64.7724 38.8476 65.7695 39.5655 65.7792C40.2834 65.7888 40.8787 64.8073 40.8951 63.5869Z" fill="#FBBFA1"/>
<path d="M63.7025 229.67H90.3025L94.8225 167.91H55.5625L63.7025 229.67Z" fill="#9FDCF0"/>
<path d="M161.687 138.088H117.077L105.867 105.988H150.467L161.687 138.088Z" fill="#B8DDDF"/>
<path d="M160.876 138.09H117.936L106.906 106.59H149.846L160.876 138.09Z" fill="#EBF1F2"/>
<path d="M136.715 130.848H134.445L135.495 133.868H137.765L136.715 130.848Z" fill="#FDD247"/>
<path d="M138.744 126.977H136.484L138.884 133.867H141.154L138.744 126.977Z" fill="#FDD247"/>
<path d="M142.567 128.207H140.297L142.277 133.867H144.547L142.567 128.207Z" fill="#FDD247"/>
<path d="M144.674 124.547H142.414L145.664 133.867H147.934L144.674 124.547Z" fill="#FDD247"/>
<path d="M147.067 121.668H144.797L149.057 133.868H151.317L147.067 121.668Z" fill="#FDD247"/>
<path d="M149.192 118.066H146.922L152.442 133.866H154.702L149.192 118.066Z" fill="#FDD247"/>
<path d="M128.777 109.207C125.947 109.207 124.457 111.497 125.447 114.327C126.437 117.157 129.527 119.447 132.357 119.447C135.187 119.447 136.677 117.157 135.687 114.327C134.697 111.497 131.607 109.207 128.777 109.207ZM131.647 117.427C129.937 117.427 128.067 116.037 127.467 114.327C126.867 112.617 127.767 111.227 129.477 111.227C131.187 111.227 133.057 112.617 133.657 114.327C134.257 116.037 133.357 117.427 131.647 117.427Z" fill="#FDD247"/>
<path d="M140.629 108.84C138.889 108.84 137.969 110.25 138.579 111.99C139.189 113.73 141.089 115.14 142.829 115.14C144.569 115.14 145.489 113.73 144.879 111.99C144.269 110.25 142.369 108.84 140.629 108.84ZM142.389 113.89C141.339 113.89 140.189 113.04 139.819 111.99C139.449 110.94 140.009 110.09 141.059 110.09C142.109 110.09 143.259 110.94 143.629 111.99C143.999 113.04 143.439 113.89 142.389 113.89Z" fill="#212C55"/>
<path d="M119.409 114.799C120.5 113.501 119.893 111.196 118.054 109.65C116.215 108.104 113.84 107.903 112.749 109.201C111.658 110.499 112.264 112.804 114.103 114.35C115.942 115.896 118.318 116.097 119.409 114.799Z" fill="#FBAB48"/>
<path d="M122.596 123.932C123.687 122.634 123.081 120.328 121.242 118.783C119.403 117.237 117.027 117.036 115.936 118.334C114.845 119.631 115.452 121.937 117.291 123.483C119.13 125.028 121.505 125.23 122.596 123.932Z" fill="#068B8A"/>
<path d="M125.784 133.072C126.875 131.774 126.268 129.469 124.429 127.923C122.59 126.377 120.215 126.176 119.124 127.474C118.033 128.772 118.639 131.077 120.478 132.623C122.317 134.169 124.693 134.37 125.784 133.072Z" fill="#63C1C8"/>
<path d="M132.643 121.877H129.043L128.773 121.117H132.383L132.643 121.877Z" fill="white"/>
<path d="M137.636 121.877H134.036L133.766 121.117H137.376L137.636 121.877Z" fill="white"/>
<path d="M145.307 117.069H141.708L141.438 116.309H145.037L145.307 117.069Z" fill="white"/>
<path d="M138.688 136.119H134.528L134.258 135.359H138.428L138.688 136.119Z" fill="#FBAB48"/>
<path d="M126.469 136.119H122.299L122.039 135.359H126.199L126.469 136.119Z" fill="#B8DDDF"/>
<path d="M144.766 136.119H140.606L140.336 135.359H144.506L144.766 136.119Z" fill="#FBAB48"/>
<path d="M150.844 136.119H146.684L146.414 135.359H150.584L150.844 136.119Z" fill="#FBAB48"/>
<path d="M156.93 136.119H152.77L152.5 135.359H156.67L156.93 136.119Z" fill="#FBAB48"/>
<path d="M190.335 138.09H148.055V139.67H190.335V138.09Z" fill="#B8DDDF"/>
<path d="M206.603 230.329H233.203L238.393 164.699H199.133L206.603 230.329Z" fill="#9FDCF0"/>
<path d="M199.411 89.0905V97.6805L191.461 99.0105V92.4905L195.631 85.4805L199.411 89.0905Z" fill="#EF936B"/>
<path d="M196.493 86.4817C196.493 86.4817 196.273 92.9117 195.873 93.4817C195.473 94.0417 190.103 97.0017 187.023 95.6317C183.943 94.2617 183.743 81.4217 184.633 79.0017C185.513 76.5917 194.983 77.3117 194.983 77.3117C194.983 77.3117 196.763 81.6617 196.493 86.4817Z" fill="#F9A981"/>
<path d="M192.99 79.8909C192.99 79.8909 185.61 81.7409 183.5 79.5309C181.39 77.3209 184.85 72.9209 188.69 72.0709C192.53 71.2309 199.87 70.6009 199.39 74.7209C196.82 79.0009 193 79.8909 193 79.8909H192.99Z" fill="#0B3D60"/>
<path d="M142.757 120.682L138.867 120.282L135.177 117.512H129.547C129.547 117.512 128.987 118.812 131.727 119.452C134.467 120.082 135.537 124.442 137.357 124.302C139.177 124.172 139.657 123.932 139.657 123.932L156.927 125.482L142.747 120.672L142.757 120.682Z" fill="#EF936B"/>
<path d="M203.253 76.7899C206.023 81.8199 200.333 86.3999 199.413 89.0899C198.193 89.0499 196.233 88.6699 196.153 86.1599C194.303 85.9199 192.473 82.0899 193.153 79.8399C195.183 77.8499 199.383 74.7199 199.383 74.7199C199.383 74.7199 202.033 74.5999 203.243 76.7899H203.253Z" fill="#212C55"/>
<path d="M182.861 102.292L169.251 118.102C169.251 118.102 153.821 120.292 141.211 119.462C141.451 122.552 141.801 125.692 141.801 125.692C141.801 125.692 163.891 128.072 175.231 127.752C185.381 118.632 190.971 113.162 194.031 106.972C197.081 100.782 186.731 97.7817 182.851 102.292H182.861Z" fill="#018AAA"/>
<path d="M197.988 86.4397C197.988 87.6297 197.258 88.9997 196.828 88.9997C196.398 88.9997 195.648 88.0297 195.648 86.8397C195.648 85.6497 196.178 84.6797 196.828 84.6797C197.478 84.6797 197.988 85.2497 197.988 86.4397Z" fill="#F9A981"/>
<path d="M181.591 104.222C182.761 100.712 188.981 98.5916 195.571 97.5916C201.851 96.6316 209.271 96.0416 212.081 98.3316C216.151 101.662 211.631 126.912 211.341 140.442C205.041 140.682 181.771 140.472 180.881 140.442C181.331 128.892 178.411 113.762 181.591 104.222Z" fill="#00A5CF"/>
<path d="M137.129 124.311H133.289L133.859 123.551L138.129 122.301L137.129 124.311Z" fill="#EF936B"/>
<path d="M127.81 114.8L136.16 125.8L137.01 124.9L128.78 113.94L127.18 113.16L127.81 114.8Z" fill="#212C55"/>
<path d="M130.123 117.87C130.123 117.87 128.953 117.65 128.853 118.17C128.753 118.69 129.473 122.21 131.673 123.71C133.873 125.21 136.193 124.99 136.123 123.44C136.053 121.89 135.053 120.27 134.473 119.92C133.893 119.57 130.783 119.42 130.123 117.87Z" fill="#F9A981"/>
<path d="M182.959 109.521L177.899 102.891L177.099 97.7411C177.099 97.7411 175.699 98.1311 175.699 99.0111C175.699 99.8911 176.409 102.001 175.699 102.201C174.989 102.411 169.159 96.9111 167.999 97.3011C166.839 97.6811 167.489 106.011 168.389 107.021C169.289 108.031 176.269 109.011 176.269 109.011L191.769 127.961L182.969 109.521H182.959Z" fill="#F9A981"/>
<path d="M177.219 112.619L182.749 107.619L196.039 120.049C196.039 120.049 200.929 104.199 203.989 100.509C207.049 96.8186 210.419 96.3586 212.569 98.8886C214.729 101.429 215.169 105.889 212.729 110.889C210.289 115.889 205.259 126.829 202.889 131.089C200.509 135.339 197.769 136.739 193.369 131.829C188.969 126.919 177.219 112.619 177.219 112.619Z" fill="#018AAA"/>
<path d="M174.344 215.099V220.919L180.314 221.609L181.944 220.229L182.774 211.109L174.344 215.099Z" fill="#EF936B"/>
<path d="M146.838 208.869L144.828 220.849L151.358 222.019L154.758 207.289L146.838 208.869Z" fill="#EF936B"/>
<path d="M197.498 140.449H180.868L156.548 152.759C153.678 154.209 151.708 156.989 151.288 160.189L144.398 212.539L154.008 214.369L165.758 169.129C165.758 169.129 187.058 165.439 196.338 159.549C205.618 153.659 197.498 140.459 197.498 140.459V140.449Z" fill="#444545"/>
<path d="M194.599 140.449H211.329C211.329 140.449 214.299 144.849 213.349 153.599C212.399 162.339 204.669 164.309 197.499 166.449L190.329 168.589L183.309 215.689H172.909C172.909 215.689 172.299 163.409 174.799 159.539C177.299 155.669 194.589 140.449 194.589 140.449H194.599Z" fill="#565656"/>
<path d="M160.547 229.299L160.887 228.159C161.377 226.509 162.657 225.209 164.307 224.699L170.407 222.809C170.407 222.809 173.217 219.309 174.337 219.309C175.457 219.309 179.957 220.399 179.957 220.399L182.667 219.429L183.787 229.289H160.557L160.547 229.299Z" fill="#018AAA"/>
<path d="M161.067 227.66C160.997 227.82 160.937 227.99 160.887 228.16L160.547 229.3H183.777L183.587 227.66H161.057H161.067Z" fill="#00A5CF"/>
<path d="M130.719 229.299L131.059 228.159C131.549 226.509 132.829 225.209 134.479 224.699L140.579 222.809C140.579 222.809 143.389 219.309 144.509 219.309C145.629 219.309 150.129 220.399 150.129 220.399L152.839 219.429L153.959 229.289H130.729L130.719 229.299Z" fill="#018AAA"/>
<path d="M131.239 227.66C131.169 227.82 131.109 227.99 131.059 228.16L130.719 229.3H153.949L153.759 227.66H131.229H131.239Z" fill="#00A5CF"/>
<path d="M269.03 139.68H0V143.17H269.03V139.68Z" fill="#9FDCF0"/>
<path d="M190.348 138.09H117.078V139.67H190.348V138.09Z" fill="#D9E8E7"/>
<path d="M115.158 133.969H123.408C123.408 133.969 134.038 136.509 134.198 139.679C131.658 139.679 121.428 140.589 120.598 140.239C119.768 139.879 117.268 137.269 117.268 137.269H115.008L115.168 133.979L115.158 133.969Z" fill="#704B3B"/>
<path d="M83.4103 98.3497C83.4103 98.3497 84.5103 100.06 85.1103 103.63C85.7103 107.2 88.1603 128.81 88.1603 128.81L115.88 132.62V138.33C115.88 138.33 87.0003 142.93 82.7603 141.07C78.5203 139.21 72.2703 120.33 72.3603 108.55C72.4503 96.7697 81.0403 95.4497 83.4103 98.3497Z" fill="#018AAA"/>
<path d="M71.5791 208.321L68.2891 215.821L74.9091 219.431L82.0891 207.051L71.5791 208.321Z" fill="#825B46"/>
<path d="M112.549 105.101L119.249 99.8711L126.979 100.861L127.339 101.691C127.339 101.691 133.489 101.291 133.839 101.611C134.199 101.931 128.999 104.661 127.529 105.101C126.059 105.541 120.029 105.101 120.029 105.101L113.409 110.411L112.539 105.101H112.549Z" fill="#825B46"/>
<path d="M59.9922 99.1109C59.9922 99.1109 65.2922 96.2209 71.2722 95.7209C77.2522 95.2209 81.2022 95.4009 82.9922 97.6909C84.7922 99.9909 84.0822 104.791 83.6422 108.591C83.2022 112.391 78.6922 141.311 78.6922 141.311L47.7422 143.171C47.7422 143.171 49.0222 137.521 51.1322 126.231C53.0022 116.211 54.9322 102.201 60.0022 99.1009L59.9922 99.1109Z" fill="#00A5CF"/>
<path d="M111.398 214.948V222.578L119.008 223.288L119.608 204.988L111.398 214.948Z" fill="#825B46"/>
<path d="M68.0868 99.9401C73.9268 104.79 89.4268 117.31 89.4268 117.31L112.587 103.83L117.547 108.87C117.547 108.87 94.1068 130.52 90.7768 130.68C87.4468 130.84 63.7268 116.36 58.0968 110.57C52.4668 104.78 60.1568 93.3601 68.0868 99.9401Z" fill="#018AAA"/>
<path d="M78.6894 141.311C78.6894 141.311 79.1394 143.111 80.6094 143.511C82.0794 143.911 117.459 154.981 120.119 156.011C122.779 157.041 125.279 159.421 124.919 164.731C124.559 170.041 120.839 216.681 120.839 216.681L110.089 216.321C110.089 216.321 108.499 184.161 108.659 179.041C108.819 173.921 109.569 172.221 109.569 172.221C103.979 169.761 67.0194 176.801 59.7994 162.151C53.5894 149.531 58.9894 142.481 58.9894 142.481L78.6894 141.301V141.311Z" fill="#444545"/>
<path d="M47.7382 143.168C47.7382 143.168 44.9682 147.768 44.8482 154.068C44.7282 160.378 47.0082 168.148 56.1582 170.488C65.3082 172.828 86.6482 171.918 86.6482 171.918C86.6482 171.918 83.1982 174.298 80.7382 178.738C78.2782 183.178 72.0882 204.748 69.9482 208.638C75.1082 211.258 80.2582 213.478 80.2582 213.478C80.2582 213.478 104.248 172.548 106.158 168.668C108.058 164.778 107.508 159.348 102.988 156.888C98.4682 154.428 70.4282 146.298 68.7282 144.478C67.3382 142.988 67.3782 141.988 67.3782 141.988L47.7382 143.168Z" fill="#565656"/>
<path d="M68.5322 213.48L76.5022 217.88L78.8322 222.58C78.8322 222.58 87.3722 225.91 87.4922 225.91C87.6122 225.91 88.6422 229.32 88.6422 229.32H72.6222L64.4922 218.83L68.5422 213.48H68.5322Z" fill="#00A5CF"/>
<path d="M65.6466 217.289L64.4766 218.839L72.6066 229.329H88.6266C88.6266 229.329 88.4266 228.679 88.1966 227.949L73.1966 227.669L65.6366 217.299L65.6466 217.289Z" fill="#018AAA"/>
<path d="M108.479 229.32L110.319 220H119.599L123.999 223.79L131.919 225.52C132.869 225.73 133.589 226.5 133.739 227.46L134.029 229.32H108.469H108.479Z" fill="#00A5CF"/>
<path d="M108.817 227.629L108.477 229.319H134.037L133.767 227.629H108.817Z" fill="#018AAA"/>
<path d="M67.6797 87.4091V96.3891C67.6797 96.3891 68.7497 97.7891 73.0097 97.7891C77.2697 97.7891 77.3997 96.6891 77.3997 96.6891V92.3291L71.3597 85.2891L67.6797 87.4091Z" fill="#704B3B"/>
<path d="M81.0506 75.5391C81.0506 75.5391 82.7606 77.3991 82.7606 84.8191C82.7606 92.2391 81.6106 94.2191 79.6106 94.2991C77.6106 94.3791 73.1906 93.2091 72.3606 91.4391C71.5406 89.6691 71.6906 85.5291 71.6906 85.5291L71.3906 77.5091L81.0506 75.5391Z" fill="#825B46"/>
<path d="M70.5814 86.5613L67.6814 87.4113C67.6814 87.4113 65.4714 83.3513 64.9114 82.1113C64.3514 80.8713 64.6414 79.5513 65.5314 79.6113C66.4114 79.6713 73.6614 79.9013 73.6614 79.9013C73.6614 79.9013 73.3914 83.5813 71.3614 83.5513C69.3314 83.5213 70.5814 86.5513 70.5814 86.5513V86.5613Z" fill="#1A1E1E"/>
<path d="M65.2584 79.6406C65.2584 79.6406 64.1684 79.2306 64.3784 77.4906C64.5884 75.7506 66.7984 76.0806 66.7984 76.0806C66.7984 76.0806 65.8284 74.4306 67.0084 73.6406C68.1884 72.8406 68.9184 73.6406 68.9184 73.6406C68.9184 73.6406 68.4484 72.0506 69.5984 71.5206C70.7484 70.9906 71.8984 72.4306 71.8984 72.4306C71.8984 72.4306 72.1384 70.6906 73.8684 70.8106C75.6084 70.9306 75.6084 72.4306 75.6084 72.4306C75.6084 72.4306 76.4284 70.9306 78.2284 71.3706C80.0284 71.8106 79.4084 73.3706 79.4084 73.3706C79.4084 73.3706 81.7384 72.4006 82.3284 74.2506C82.9884 76.3406 80.1184 79.2006 73.6684 79.9006C67.1284 80.9306 65.2784 79.6306 65.2784 79.6306L65.2584 79.6406Z" fill="#2D3233"/>
<path d="M70.9816 87.4091C71.7437 87.4091 72.3616 86.3748 72.3616 85.0991C72.3616 83.8233 71.7437 82.7891 70.9816 82.7891C70.2194 82.7891 69.6016 83.8233 69.6016 85.0991C69.6016 86.3748 70.2194 87.4091 70.9816 87.4091Z" fill="#825B46"/>
<path d="M224.244 134.4L220.914 134.56L216.514 133.93C216.514 133.93 208.624 137.38 208.744 138.83C208.834 139.88 213.934 139.73 216.704 139.57C217.794 139.51 218.784 138.95 219.414 138.06L219.934 137.31L230.204 137.63L224.254 134.42L224.244 134.4Z" fill="#FBBFA1"/>
<path d="M240.871 97.3014C244.561 100.041 247.201 103.281 254.161 116.361C261.121 129.451 262.071 139.321 256.601 139.451C249.351 139.631 222.891 138.821 222.891 138.821V133.471L247.931 130.321C247.931 130.321 236.231 113.771 233.991 107.501C231.371 100.161 237.181 94.5614 240.871 97.3014Z" fill="#018AAA"/>
<path d="M152.652 211.33L149.812 218.67L156.523 221.32L163.003 206.82L152.652 211.33Z" fill="#FBBFA1"/>
<path d="M190.84 208.891L193.6 218.301L186.08 219.511L182.57 208.891H190.84Z" fill="#FBBFA1"/>
<path d="M245.71 138.311C245.71 138.311 247.98 143.461 247.51 151.171C247.05 158.881 240.19 168.601 223.22 169.331C206.25 170.061 183.85 170.021 183.85 170.021L192.91 210.041L182.54 213.661C182.54 213.661 168.62 171.831 168.12 166.581C167.62 161.341 230.51 140.311 230.51 140.311L234.24 138.301H245.7L245.71 138.311Z" fill="#444545"/>
<path d="M221.443 139.2C221.443 139.2 181.352 152.48 174.952 154.37C168.552 156.26 168.243 158.88 166.393 163.16C164.543 167.44 150.812 211.36 150.812 211.36L160.643 214.79L181.232 171.11C181.232 171.11 214.663 170.88 219.363 170.45C224.062 170.03 237.983 166.9 240.603 152.98C243.223 139.06 236.863 136.43 236.863 136.43L221.432 139.21L221.443 139.2Z" fill="#565656"/>
<path d="M149.109 218.301L157.209 220.971L157.939 229.281H136.609L136.959 227.361C137.059 226.781 137.439 226.291 137.969 226.041L146.539 221.941L149.119 218.301H149.109Z" fill="#00A5CF"/>
<path d="M136.922 227.52L136.602 229.28H157.932L157.782 227.52H136.922Z" fill="#018AAA"/>
<path d="M185.143 219.352L193.943 215.762L197.512 226.852V229.272H174.312L174.803 227.612C175.103 226.602 175.823 225.762 176.773 225.322L185.643 221.202L185.143 219.352Z" fill="#00A5CF"/>
<path d="M174.847 227.449C174.827 227.509 174.807 227.559 174.787 227.619L174.297 229.279H197.497V227.449H174.847Z" fill="#018AAA"/>
<path d="M221.44 139.199C221.44 139.199 240.06 138.609 245.71 138.309C245.06 122.129 247.38 109.639 244.7 102.319C242.02 94.9993 236.51 95.8593 236.51 95.8593C236.51 95.8593 227.45 95.9193 224.89 96.4593C222.33 96.9993 218.53 100.419 218.76 110.409C219 120.399 221.32 131.589 221.44 139.199Z" fill="#00A5CF"/>
<path d="M161.602 138.149L167.272 124.309L168.222 124.579L162.472 138.149L161.782 138.769L161.602 138.149Z" fill="#145859"/>
<path d="M174.012 131.212L168.142 132.402L166.872 130.812L164.092 130.272C163.542 130.162 162.982 130.412 162.692 130.902C161.802 132.412 160.062 135.612 160.602 136.722C161.102 137.742 163.552 138.072 165.002 138.182C165.652 138.232 166.302 138.032 166.812 137.632C167.442 137.142 168.332 136.502 168.962 136.292C170.032 135.932 179.832 134.762 179.832 134.762L174.002 131.212H174.012Z" fill="#FBBFA1"/>
<path d="M228.938 97.9219C232.348 101.172 230.648 110.172 225.408 116.082C220.178 121.992 207.678 130.672 207.678 130.672C207.678 130.672 196.768 136.222 173.378 137.092C172.508 132.972 172.508 130.672 172.508 130.672L201.778 120.402C201.778 120.402 217.018 100.912 222.958 97.1319C225.928 95.2419 228.948 97.9219 228.948 97.9219H228.938Z" fill="#018AAA"/>
<path opacity="0.69" d="M172.497 139.012H153.727V139.452H172.497V139.012Z" fill="white"/>
<path d="M226.259 73.4914C223.579 75.3914 222.019 78.5114 221.479 83.6414C220.939 88.7814 220.939 90.8214 222.729 91.1714C224.119 91.4514 230.179 91.4714 234.509 88.7214L237.619 85.6714C241.269 79.8814 239.859 74.7214 236.429 73.0014C232.999 71.2714 226.259 73.4814 226.259 73.4814V73.4914Z" fill="#FBBFA1"/>
<path d="M236.693 74.1404C236.693 74.1404 225.943 80.7603 221.803 81.4203C217.263 79.3403 216.503 71.7603 223.883 67.2403C231.263 62.7203 238.993 68.5003 237.713 72.4203L236.693 74.1504V74.1404Z" fill="#0B3D60"/>
<path d="M234.451 88.7698V95.8898L227.141 96.1798L227.691 85.0499L228.561 83.8398L232.031 84.9099L234.451 88.7698Z" fill="#F9AF8E"/>
<path d="M223.793 76.0709C223.793 76.0709 222.513 81.4009 228.033 83.0709C228.413 85.7909 231.563 89.0609 234.453 88.7709C239.173 84.2809 244.673 82.9809 244.013 77.3009C243.533 73.2009 240.203 71.4509 237.853 71.9909C237.853 71.9909 225.113 69.6109 223.793 76.0709Z" fill="#0B3D60"/>
<path d="M237.273 71.24C237.273 71.24 243.283 62.88 254.433 66.01C265.583 69.13 260.713 80.41 258.123 84.66C255.533 88.91 250.393 97.95 254.583 102.3C248.933 104.17 244.343 98.1 244.473 91.83C244.653 83.36 252.353 74.41 247.623 71.01C243.693 68.18 238.433 73.27 238.433 73.27L237.273 71.25V71.24Z" fill="#0B3D60"/>
<path d="M254.582 102.292C243.842 95.0016 256.782 78.9116 253.602 72.3516C251.042 67.0816 242.992 70.4716 242.992 70.4716C244.492 69.9916 246.152 69.9416 247.622 71.0016C252.352 74.4016 244.652 83.3516 244.472 91.8216C244.342 98.0916 248.932 104.162 254.582 102.292Z" fill="#212C55"/>
<path d="M229.144 83.4942C229.272 82.1806 228.722 81.0514 227.914 80.9722C227.106 80.893 226.346 81.8937 226.218 83.2073C226.089 84.521 226.639 85.6502 227.447 85.7294C228.255 85.8086 229.015 84.8079 229.144 83.4942Z" fill="#FBBFA1"/>
<path d="M234.04 59.9189L233.28 59.6289C222.84 55.5889 211.63 61.5789 200.82 64.0889C188.41 66.9689 171.57 66.2789 162.27 61.1389C155.92 57.6289 154.93 47.8689 154.98 28.2289C155.02 15.0389 152.34 6.56894 164.87 2.63894C174.71 -0.441065 193.45 -1.33106 211.73 2.68894C218.75 4.22894 224.65 7.93893 225.83 15.8189C228.29 32.2289 226.29 47.6089 226.29 47.6089L234.05 59.9089L234.04 59.9189Z" fill="#00A5CF"/>
<path d="M149.787 22.5781C131.837 22.5781 117.297 37.1281 117.297 55.0681C117.297 61.7481 119.307 65.5581 123.117 73.1181C128.667 84.1281 119.507 88.7881 119.507 88.7881C119.507 88.7881 143.517 88.9581 149.787 88.9581C167.737 88.9581 182.277 73.0081 182.277 55.0681C182.277 37.1281 167.727 22.5781 149.787 22.5781Z" fill="#018AAA"/>
<path d="M254.3 18.3298L255.9 21.4698L252.55 20.7098L241.07 17.0898L254.3 18.3298Z" fill="#00A5CF"/>
<path d="M255.903 21.4702L250.203 21.1202L251.603 20.4102L255.903 21.4702Z" fill="#018AAA"/>
<path d="M254.3 18.3295L255.3 15.2695L241.07 17.0895L254.3 18.3295Z" fill="url(#paint0_linear_5363_26296)"/>
<path d="M241.07 17.0898L252.55 20.7098L250.83 25.1198L241.07 17.0898Z" fill="url(#paint1_linear_5363_26296)"/>
<path d="M254.64 24.6284C254.64 24.6284 254.7 24.5884 254.72 24.5684C254.82 24.4584 254.81 24.2884 254.69 24.1884C254.34 23.8784 253.96 23.6084 253.56 23.3784C253.43 23.2984 253.27 23.3484 253.19 23.4784C253.12 23.6084 253.16 23.7684 253.29 23.8484C253.66 24.0684 254.01 24.3184 254.34 24.6084C254.42 24.6784 254.54 24.6884 254.64 24.6484V24.6284Z" fill="#00A5CF"/>
<path d="M250.472 53.9272C250.392 53.7972 250.442 53.6372 250.562 53.5572C251.282 53.1272 251.942 52.5572 252.532 51.8572C252.622 51.7472 252.792 51.7272 252.912 51.8172C253.022 51.9072 253.042 52.0772 252.952 52.1972C252.332 52.9472 251.622 53.5672 250.842 54.0172C250.842 54.0172 250.842 54.0172 250.822 54.0172C250.702 54.0772 250.542 54.0372 250.472 53.9172V53.9272ZM253.532 50.9172C253.402 50.8472 253.362 50.6772 253.432 50.5472C253.862 49.7872 254.192 48.9572 254.402 48.1072C254.442 47.9672 254.582 47.8772 254.722 47.9072C254.862 47.9472 254.952 48.0872 254.922 48.2272C254.702 49.1272 254.352 49.9972 253.892 50.8072C253.862 50.8572 253.822 50.8872 253.782 50.9172C253.702 50.9572 253.612 50.9572 253.532 50.9172ZM254.902 46.8372C254.752 46.8272 254.642 46.6972 254.652 46.5472V46.4272C254.702 45.6172 254.652 44.7672 254.532 43.9072C254.512 43.7572 254.612 43.6272 254.752 43.5972C254.902 43.5772 255.032 43.6772 255.062 43.8172C255.202 44.7072 255.242 45.5972 255.202 46.4472V46.5772C255.182 46.6772 255.132 46.7572 255.052 46.7972C255.012 46.8172 254.962 46.8272 254.912 46.8272L254.902 46.8372ZM254.532 42.5372C254.392 42.5772 254.242 42.4872 254.202 42.3472C253.992 41.5372 253.692 40.6872 253.332 39.8272C253.272 39.6872 253.342 39.5272 253.472 39.4772C253.612 39.4172 253.762 39.4772 253.822 39.6172C254.192 40.5072 254.492 41.3772 254.712 42.2072C254.742 42.3272 254.682 42.4572 254.572 42.5172C254.552 42.5172 254.542 42.5372 254.522 42.5372H254.532ZM253.022 38.4772C252.892 38.5472 252.732 38.4872 252.662 38.3572C252.632 38.2872 252.592 38.2172 252.562 38.1572C252.282 38.2672 251.992 38.3672 251.692 38.4472C251.552 38.4872 251.402 38.4072 251.362 38.2572C251.322 38.1172 251.402 37.9672 251.552 37.9272C251.812 37.8572 252.062 37.7672 252.312 37.6772C252.032 37.1472 251.722 36.5872 251.382 35.9972C251.312 35.8672 251.352 35.7072 251.482 35.6272C251.612 35.5572 251.772 35.5972 251.852 35.7272C252.212 36.3472 252.532 36.9172 252.812 37.4672C253.202 37.2872 253.582 37.0772 253.932 36.8472C254.052 36.7672 254.222 36.7972 254.302 36.9172C254.382 37.0372 254.352 37.2072 254.232 37.2872C253.862 37.5372 253.472 37.7572 253.062 37.9372C253.092 37.9972 253.122 38.0572 253.152 38.1172C253.212 38.2472 253.162 38.4072 253.032 38.4772H253.022ZM255.142 36.2172C255.032 36.1172 255.032 35.9472 255.142 35.8372C255.522 35.4472 255.852 35.0172 256.122 34.5672C256.292 34.2872 256.442 33.9872 256.562 33.6772C256.622 33.5372 256.772 33.4772 256.912 33.5272C257.052 33.5872 257.112 33.7372 257.062 33.8772C256.922 34.2072 256.762 34.5372 256.582 34.8372C256.292 35.3272 255.932 35.7872 255.532 36.2072C255.512 36.2272 255.492 36.2472 255.462 36.2572C255.362 36.3072 255.242 36.2972 255.152 36.2072L255.142 36.2172ZM250.052 38.7372C249.102 38.8172 248.162 38.7372 247.272 38.5172C247.132 38.4772 247.042 38.3372 247.082 38.1872C247.122 38.0472 247.262 37.9572 247.412 37.9972C248.242 38.2072 249.122 38.2772 250.012 38.1972C250.162 38.1872 250.292 38.2972 250.302 38.4372C250.302 38.5472 250.252 38.6472 250.152 38.6972C250.122 38.7172 250.092 38.7272 250.052 38.7272V38.7372ZM257.212 32.4872C257.062 32.4572 256.972 32.3272 256.992 32.1772C257.142 31.3272 257.152 30.4472 257.012 29.5672C256.992 29.4172 257.092 29.2872 257.242 29.2672C257.392 29.2472 257.522 29.3472 257.542 29.4972C257.682 30.4372 257.672 31.3772 257.512 32.2772C257.492 32.3672 257.442 32.4372 257.372 32.4672C257.322 32.4972 257.262 32.5072 257.202 32.4872H257.212ZM245.702 37.9272C245.482 37.8172 245.272 37.6972 245.072 37.5672C244.492 37.1872 243.962 36.6872 243.552 36.1172C243.462 35.9972 243.492 35.8272 243.612 35.7472C243.732 35.6572 243.902 35.6872 243.982 35.8072C244.352 36.3272 244.822 36.7772 245.352 37.1172C245.542 37.2372 245.732 37.3472 245.932 37.4572C246.062 37.5272 246.112 37.6872 246.052 37.8172C246.022 37.8672 245.982 37.9072 245.932 37.9372C245.862 37.9772 245.772 37.9772 245.692 37.9372L245.702 37.9272ZM250.552 34.6072C249.972 33.7172 249.452 33.0672 248.892 32.5672C248.782 32.4672 248.772 32.2972 248.872 32.1872C248.972 32.0772 249.142 32.0672 249.252 32.1672C249.842 32.6972 250.402 33.3872 251.002 34.3172C251.082 34.4372 251.042 34.6072 250.922 34.6872C250.922 34.6872 250.902 34.6872 250.902 34.6972C250.782 34.7572 250.632 34.7172 250.552 34.6072ZM256.982 28.1972C256.842 28.2472 256.692 28.1672 256.642 28.0272C256.512 27.6472 256.352 27.2772 256.172 26.9272C255.952 26.4972 255.702 26.0972 255.422 25.7172C255.332 25.5972 255.352 25.4272 255.472 25.3372C255.592 25.2472 255.762 25.2672 255.852 25.3872C256.152 25.7872 256.422 26.2172 256.652 26.6772C256.842 27.0572 257.012 27.4472 257.152 27.8472C257.192 27.9772 257.142 28.1172 257.022 28.1772C257.012 28.1772 257.002 28.1872 256.992 28.1872L256.982 28.1972ZM243.142 34.7572C243.002 34.7972 242.852 34.7072 242.812 34.5572C242.622 33.7972 242.702 33.0572 243.032 32.4172C243.152 32.1872 243.312 31.9772 243.492 31.7872C243.592 31.6772 243.762 31.6772 243.872 31.7872C243.982 31.8872 243.982 32.0572 243.872 32.1672C243.722 32.3172 243.602 32.4872 243.502 32.6772C243.222 33.2072 243.172 33.7972 243.332 34.4372C243.362 34.5572 243.302 34.6872 243.192 34.7372C243.172 34.7372 243.152 34.7572 243.132 34.7572H243.142ZM247.622 31.6972C246.872 31.3472 245.952 31.2672 245.152 31.4672C245.012 31.5072 244.862 31.4172 244.822 31.2772C244.782 31.1372 244.872 30.9872 245.012 30.9472C245.932 30.7172 246.962 30.8072 247.832 31.2172C247.962 31.2772 248.022 31.4372 247.962 31.5772C247.932 31.6372 247.892 31.6772 247.842 31.7072C247.772 31.7472 247.682 31.7472 247.612 31.7072L247.622 31.6972Z" fill="#00A5CF"/>
<path d="M249.31 54.6878C249.42 54.6278 249.48 54.4978 249.45 54.3778C249.41 54.2378 249.26 54.1578 249.12 54.1978C248.71 54.3178 248.28 54.3878 247.86 54.4078C247.71 54.4078 247.6 54.5378 247.61 54.6878C247.61 54.8378 247.74 54.9478 247.89 54.9378C248.35 54.9078 248.82 54.8378 249.27 54.7078C249.29 54.7078 249.3 54.6978 249.32 54.6878H249.31Z" fill="#00A5CF"/>
<path d="M69.0766 33.8591L59.7966 28.7391L55.0566 27.7891L51.4766 28.3091L69.0766 33.8591Z" fill="url(#paint2_linear_5363_26296)"/>
<path d="M69.0766 33.8586L51.6966 29.3886L51.4766 28.3086" fill="#00A5CF"/>
<path d="M51.2109 32.3711L51.2309 32.4111L51.9609 35.1111L69.0409 33.8611L51.2109 32.3711Z" fill="#018AAA"/>
<path d="M47.8906 30.7913L50.3706 28.7812L68.9706 33.8313L52.9606 33.3512L47.8906 30.7913Z" fill="url(#paint3_linear_5363_26296)"/>
<path d="M8.80816 65.2182C9.37816 65.0182 9.93816 64.7782 10.4782 64.4882C10.5982 64.4282 10.7582 64.4682 10.8182 64.5982C10.8782 64.7182 10.8382 64.8782 10.7082 64.9382C10.1482 65.2282 9.55816 65.4882 8.96816 65.6882C8.75816 65.7682 8.53816 65.8382 8.32816 65.8982C8.24816 65.9182 8.16816 65.8982 8.10816 65.8582C8.06816 65.8282 8.02816 65.7782 8.01816 65.7282C7.97816 65.5982 8.05816 65.4582 8.18816 65.4182C8.39816 65.3582 8.60816 65.2882 8.80816 65.2182Z" fill="#00A5CF"/>
<path d="M42.8128 28.9088C43.6028 29.0088 44.4228 29.1388 45.3228 29.3088C45.4628 29.3388 45.5528 29.4688 45.5228 29.5988C45.4928 29.7388 45.3628 29.8288 45.2328 29.7988C44.3428 29.6388 43.5328 29.5088 42.7528 29.4088C42.7128 29.4088 42.6728 29.3888 42.6328 29.3588C42.5628 29.3088 42.5228 29.2188 42.5328 29.1288C42.5528 28.9888 42.6728 28.8888 42.8128 28.9088Z" fill="#00A5CF"/>
<path d="M38.6 29.0984C38.54 29.0484 38.5 28.9784 38.5 28.8984C38.5 28.7584 38.61 28.6484 38.75 28.6484C39.56 28.6484 40.42 28.6784 41.29 28.7484C41.43 28.7584 41.53 28.8784 41.52 29.0184C41.51 29.1584 41.39 29.2584 41.25 29.2484C40.39 29.1784 39.55 29.1384 38.75 29.1484C38.69 29.1484 38.64 29.1284 38.6 29.0984Z" fill="#00A5CF"/>
<path d="M13.6809 62.1688C13.7809 62.0688 13.9409 62.0688 14.0409 62.1688C14.1409 62.2688 14.1409 62.4288 14.0409 62.5288C13.4309 63.1288 12.7609 63.6688 12.0509 64.1488C11.9609 64.2088 11.8409 64.2088 11.7609 64.1488C11.7409 64.1288 11.7209 64.1087 11.7009 64.0887C11.6209 63.9687 11.6509 63.8188 11.7709 63.7388C12.4509 63.2788 13.1009 62.7588 13.6909 62.1788L13.6809 62.1688Z" fill="#00A5CF"/>
<path d="M14.7175 61.4287C14.6075 61.3387 14.5975 61.1787 14.6775 61.0687C14.8175 60.8987 14.9575 60.7187 15.0975 60.5387C15.4575 60.0587 15.7875 59.5487 16.0675 59.0187C16.1375 58.8987 16.2875 58.8487 16.4075 58.9187C16.5275 58.9887 16.5775 59.1387 16.5075 59.2587C16.2075 59.7987 15.8775 60.3287 15.4975 60.8387C15.3575 61.0287 15.2175 61.2087 15.0675 61.3887C14.9775 61.4887 14.8275 61.5087 14.7175 61.4287Z" fill="#00A5CF"/>
<path d="M16.8393 58.017C16.8393 58.017 16.7993 57.997 16.7893 57.987C16.6993 57.917 16.6593 57.797 16.7093 57.687C17.0093 56.957 17.2593 56.187 17.4793 55.327C17.5093 55.187 17.6493 55.107 17.7893 55.147C17.9193 55.177 18.0093 55.317 17.9693 55.457C17.7493 56.347 17.4893 57.137 17.1793 57.887C17.1293 58.017 16.9793 58.077 16.8493 58.027L16.8393 58.017Z" fill="#00A5CF"/>
<path d="M23.5353 36.4776C23.3253 36.7376 23.1253 36.9976 22.9253 37.2576C22.6253 37.6576 22.3453 38.0776 22.0853 38.4976C22.0153 38.6176 21.8553 38.6476 21.7353 38.5776C21.7353 38.5776 21.7253 38.5776 21.7153 38.5676C21.6153 38.4876 21.5853 38.3476 21.6553 38.2276C21.9253 37.7976 22.2153 37.3676 22.5253 36.9576C22.7253 36.6876 22.9353 36.4176 23.1553 36.1576C23.2453 36.0476 23.3953 36.0176 23.5153 36.1276C23.6253 36.2176 23.6353 36.3776 23.5453 36.4876L23.5353 36.4776Z" fill="#00A5CF"/>
<path d="M21.3371 39.7873C20.9471 40.5273 20.6171 41.2973 20.3371 42.0673C20.2871 42.1973 20.1471 42.2673 20.0171 42.2173C19.9971 42.2173 19.9671 42.1973 19.9571 42.1873C19.8671 42.1273 19.8271 42.0073 19.8671 41.8973C20.1571 41.1073 20.4971 40.3173 20.8971 39.5573C20.9571 39.4373 21.1171 39.3873 21.2371 39.4473C21.3571 39.5073 21.4071 39.6673 21.3471 39.7873H21.3371Z" fill="#00A5CF"/>
<path d="M26.3488 33.6598C25.7088 34.1898 25.0888 34.7598 24.5188 35.3498C24.4288 35.4398 24.2888 35.4498 24.1888 35.3798C24.1888 35.3798 24.1688 35.3698 24.1688 35.3598C24.0688 35.2598 24.0688 35.0998 24.1688 34.9998C24.7487 34.3898 25.3788 33.7998 26.0388 33.2598C26.1488 33.1698 26.3087 33.1898 26.3987 33.2998C26.4887 33.4098 26.4688 33.5698 26.3688 33.6598H26.3488Z" fill="#00A5CF"/>
<path d="M31.0096 30.7879C30.9196 30.8279 30.8296 30.8078 30.7596 30.7578C30.7296 30.7278 30.6996 30.6978 30.6796 30.6578C30.6196 30.5278 30.6796 30.3778 30.8096 30.3278C31.5896 29.9778 32.3996 29.6879 33.2096 29.4479C33.3396 29.4079 33.4796 29.4879 33.5196 29.6179C33.5596 29.7479 33.4796 29.8878 33.3496 29.9278C32.5596 30.1578 31.7796 30.4479 31.0096 30.7879Z" fill="#00A5CF"/>
<path d="M18.5653 50.1571C18.5653 50.1571 18.4753 50.1371 18.4453 50.1071C18.3753 50.0571 18.3353 49.9671 18.3453 49.8771L18.3853 49.5571C18.4653 48.8271 18.5553 48.0971 18.6453 47.3671C18.6653 47.2271 18.7953 47.1271 18.9253 47.1471C19.0653 47.1671 19.1653 47.2871 19.1453 47.4271C19.0453 48.1571 18.9653 48.8871 18.8853 49.6071L18.8453 49.9271C18.8253 50.0671 18.7053 50.1671 18.5653 50.1471V50.1571Z" fill="#00A5CF"/>
<path d="M27.538 32.7586C27.448 32.8186 27.328 32.8186 27.238 32.7586C27.218 32.7386 27.198 32.7286 27.178 32.6986C27.098 32.5886 27.128 32.4286 27.238 32.3486C27.938 31.8586 28.668 31.4086 29.408 31.0086C29.528 30.9386 29.688 30.9886 29.748 31.1086C29.818 31.2286 29.768 31.3886 29.648 31.4486C28.918 31.8386 28.208 32.2786 27.528 32.7586H27.538Z" fill="#00A5CF"/>
<path d="M18.4463 51.1571C18.5863 51.1771 18.6863 51.2971 18.6663 51.4371C18.5463 52.4171 18.4163 53.2171 18.2863 53.9471C18.2563 54.0871 18.1263 54.1771 17.9863 54.1471C17.9463 54.1471 17.9163 54.1271 17.8863 54.0971C17.8063 54.0371 17.7663 53.9471 17.7863 53.8471C17.9263 53.1271 18.0463 52.3371 18.1663 51.3671C18.1863 51.2271 18.3063 51.1271 18.4463 51.1471V51.1571Z" fill="#00A5CF"/>
<path d="M6.73906 65.7792C6.87906 65.7492 7.00906 65.8392 7.03906 65.9792C7.06906 66.1192 6.97906 66.2492 6.83906 66.2792C6.04906 66.4392 5.21906 66.5392 4.30906 66.6092C4.24906 66.6092 4.18906 66.5992 4.13906 66.5592C4.07906 66.5192 4.03906 66.4492 4.03906 66.3692C4.03906 66.2292 4.12906 66.1092 4.26906 66.0992C5.16906 66.0392 5.96906 65.9292 6.73906 65.7792Z" fill="#00A5CF"/>
<path d="M19.7116 43.1899C19.8416 43.2299 19.9216 43.3599 19.8916 43.4999C19.6916 44.2399 19.5216 45.0399 19.3716 45.9399C19.3516 46.0799 19.2216 46.1699 19.0816 46.1499C19.0416 46.1499 19.0016 46.1299 18.9716 46.0999C18.9016 46.0499 18.8516 45.9499 18.8716 45.8599C19.0216 44.9399 19.2016 44.1299 19.4016 43.3699C19.4416 43.2399 19.5716 43.1599 19.7116 43.1899Z" fill="#00A5CF"/>
<path d="M36.3358 28.7977C36.6258 28.7577 36.9258 28.7377 37.2258 28.7077C37.3658 28.6977 37.4858 28.7977 37.4958 28.9377C37.5058 29.0777 37.4058 29.1977 37.2658 29.2077C36.9758 29.2277 36.6858 29.2577 36.4058 29.2877C35.8758 29.3477 35.3358 29.4377 34.8058 29.5477C34.7358 29.5677 34.6558 29.5477 34.6058 29.5077C34.5558 29.4677 34.5258 29.4177 34.5058 29.3577C34.4758 29.2177 34.5658 29.0877 34.6958 29.0577C35.2358 28.9377 35.7958 28.8477 36.3458 28.7877L36.3358 28.7977Z" fill="#00A5CF"/>
</g>
<defs>
<linearGradient id="paint0_linear_5363_26296" x1="241.07" y1="16.7995" x2="255.3" y2="16.7995" gradientUnits="userSpaceOnUse">
<stop stop-color="#F1F9F8"/>
<stop offset="1" stop-color="#BFE3EE"/>
</linearGradient>
<linearGradient id="paint1_linear_5363_26296" x1="0.00040786" y1="21.1098" x2="252.55" y2="21.1098" gradientUnits="userSpaceOnUse">
<stop stop-color="#F1F9F8"/>
<stop offset="1" stop-color="#BFE3EE"/>
</linearGradient>
<linearGradient id="paint2_linear_5363_26296" x1="51.4766" y1="30.8191" x2="69.0766" y2="30.8191" gradientUnits="userSpaceOnUse">
<stop stop-color="#F1F9F8"/>
<stop offset="1" stop-color="#BFE3EE"/>
</linearGradient>
<linearGradient id="paint3_linear_5363_26296" x1="47.8906" y1="31.3013" x2="68.9706" y2="31.3013" gradientUnits="userSpaceOnUse">
<stop stop-color="#F1F9F8"/>
<stop offset="1" stop-color="#BFE3EE"/>
</linearGradient>
<clipPath id="clip0_5363_26296">
<rect width="269.03" height="230.33" fill="white"/>
</clipPath>
</defs>
</svg>
